M48
;GenerationSoftware,Autodesk,EAGLE,9.3.1*%
;CreationDate,2019-03-18T20:26:45Z*%
FMAT,2
ICI,OFF
METRIC,TZ,000.000
T6C0.350
T5C0.900
T4C1.000
T3C1.400
T2C3.000
T1C3.200
%
G90
M71
T1
X42200Y18105
X42200Y33095
T2
X60500Y46200
X4500Y14400
T3
X33400Y4500
X39400Y4500
X45000Y4500
X10200Y12600
X10200Y16200
X15000Y6000
X15000Y1600
X27800Y4500
T4
X15035Y18105
X15035Y33095
T5
X47900Y8400
X50440Y8400
X55500Y8400
X52960Y8400
T6
X20200Y6900
X56600Y3200
X63700Y9800
X61300Y17800
X59300Y17700
X57200Y17800
X55100Y17800
X54700Y22500
X54500Y27400
X59500Y31300
X61900Y27400
X63400Y24900
X61900Y21400
X67600Y19500
X71100Y16700
X70600Y38300
X49300Y36100
X49000Y27900
X54800Y41900
X42800Y27500
X45800Y12100
X13500Y9000
X49300Y16700
X51400Y4900
X57400Y9800
X13700Y31000
X16300Y19900
X67500Y22900
X67500Y28700
X66700Y33400
X32200Y17300
X31300Y13700
X23300Y12100
X25700Y4800
X42800Y7300
X35500Y12000
X54900Y19500
X28900Y32000
X52000Y38700
X58000Y31100
X38200Y37000
X46300Y36100
X48400Y38500
X59000Y29300
X45200Y38800
X67100Y21100
X36900Y39700
X60800Y23800
X34600Y26100
X69800Y18700
X37100Y13200
X37100Y2500
X58500Y7200
X50600Y6000
X28700Y20800
X47200Y10700
X23300Y13700
X31300Y19700
X48300Y21700
X30700Y22500
X20100Y22500
X37200Y16300
X38400Y24900
X27500Y23400
X45400Y24900
X53600Y24200
X20000Y29200
X36600Y26100
X45300Y26500
X54200Y25800
X18300Y27300
X21800Y35000
X19900Y12600
X28900Y15700
X27800Y19500
X59500Y39000
X59500Y38100
X63500Y39000
X63500Y38100
X38200Y23000
X58200Y40000
X58200Y41800
X64800Y41800
X64800Y40000
X26300Y41500
X34100Y41800
X25300Y31000
X37800Y30900
X23300Y39600
X13700Y36200
X16700Y25900
X19900Y25100
X28400Y24700
M30