G04 EAGLE Gerber RS-274X export*
G75*
%MOMM*%
%FSLAX34Y34*%
%LPD*%
%INSilkscreen Top*%
%IPPOS*%
%AMOC8*
5,1,8,0,0,1.08239X$1,22.5*%
G01*
%ADD10C,0.152400*%
%ADD11C,0.101600*%
%ADD12C,0.076200*%
%ADD13C,0.127000*%
%ADD14C,0.254000*%


D10*
X364000Y0D02*
X364000Y50000D01*
X178000Y30000D02*
X178000Y0D01*
X178000Y30000D02*
X238000Y30000D01*
X238000Y0D01*
X490000Y0D02*
X490000Y30000D01*
X550000Y30000D01*
X550000Y0D01*
X385000Y331000D02*
X385011Y331908D01*
X385045Y332816D01*
X385100Y333722D01*
X385178Y334627D01*
X385278Y335529D01*
X385400Y336429D01*
X385545Y337326D01*
X385711Y338218D01*
X385899Y339107D01*
X386109Y339990D01*
X386340Y340868D01*
X386593Y341741D01*
X386867Y342606D01*
X387163Y343465D01*
X387479Y344316D01*
X387816Y345159D01*
X388174Y345994D01*
X388552Y346820D01*
X388951Y347636D01*
X389369Y348442D01*
X389807Y349237D01*
X390264Y350022D01*
X390740Y350795D01*
X391236Y351556D01*
X391749Y352305D01*
X392281Y353041D01*
X392831Y353764D01*
X393399Y354473D01*
X393983Y355167D01*
X394585Y355848D01*
X395203Y356513D01*
X395837Y357163D01*
X396487Y357797D01*
X397152Y358415D01*
X397833Y359017D01*
X398527Y359601D01*
X399236Y360169D01*
X399959Y360719D01*
X400695Y361251D01*
X401444Y361764D01*
X402205Y362260D01*
X402978Y362736D01*
X403763Y363193D01*
X404558Y363631D01*
X405364Y364049D01*
X406180Y364448D01*
X407006Y364826D01*
X407841Y365184D01*
X408684Y365521D01*
X409535Y365837D01*
X410394Y366133D01*
X411259Y366407D01*
X412132Y366660D01*
X413010Y366891D01*
X413893Y367101D01*
X414782Y367289D01*
X415674Y367455D01*
X416571Y367600D01*
X417471Y367722D01*
X418373Y367822D01*
X419278Y367900D01*
X420184Y367955D01*
X421092Y367989D01*
X422000Y368000D01*
X422908Y367989D01*
X423816Y367955D01*
X424722Y367900D01*
X425627Y367822D01*
X426529Y367722D01*
X427429Y367600D01*
X428326Y367455D01*
X429218Y367289D01*
X430107Y367101D01*
X430990Y366891D01*
X431868Y366660D01*
X432741Y366407D01*
X433606Y366133D01*
X434465Y365837D01*
X435316Y365521D01*
X436159Y365184D01*
X436994Y364826D01*
X437820Y364448D01*
X438636Y364049D01*
X439442Y363631D01*
X440237Y363193D01*
X441022Y362736D01*
X441795Y362260D01*
X442556Y361764D01*
X443305Y361251D01*
X444041Y360719D01*
X444764Y360169D01*
X445473Y359601D01*
X446167Y359017D01*
X446848Y358415D01*
X447513Y357797D01*
X448163Y357163D01*
X448797Y356513D01*
X449415Y355848D01*
X450017Y355167D01*
X450601Y354473D01*
X451169Y353764D01*
X451719Y353041D01*
X452251Y352305D01*
X452764Y351556D01*
X453260Y350795D01*
X453736Y350022D01*
X454193Y349237D01*
X454631Y348442D01*
X455049Y347636D01*
X455448Y346820D01*
X455826Y345994D01*
X456184Y345159D01*
X456521Y344316D01*
X456837Y343465D01*
X457133Y342606D01*
X457407Y341741D01*
X457660Y340868D01*
X457891Y339990D01*
X458101Y339107D01*
X458289Y338218D01*
X458455Y337326D01*
X458600Y336429D01*
X458722Y335529D01*
X458822Y334627D01*
X458900Y333722D01*
X458955Y332816D01*
X458989Y331908D01*
X459000Y331000D01*
X458989Y330092D01*
X458955Y329184D01*
X458900Y328278D01*
X458822Y327373D01*
X458722Y326471D01*
X458600Y325571D01*
X458455Y324674D01*
X458289Y323782D01*
X458101Y322893D01*
X457891Y322010D01*
X457660Y321132D01*
X457407Y320259D01*
X457133Y319394D01*
X456837Y318535D01*
X456521Y317684D01*
X456184Y316841D01*
X455826Y316006D01*
X455448Y315180D01*
X455049Y314364D01*
X454631Y313558D01*
X454193Y312763D01*
X453736Y311978D01*
X453260Y311205D01*
X452764Y310444D01*
X452251Y309695D01*
X451719Y308959D01*
X451169Y308236D01*
X450601Y307527D01*
X450017Y306833D01*
X449415Y306152D01*
X448797Y305487D01*
X448163Y304837D01*
X447513Y304203D01*
X446848Y303585D01*
X446167Y302983D01*
X445473Y302399D01*
X444764Y301831D01*
X444041Y301281D01*
X443305Y300749D01*
X442556Y300236D01*
X441795Y299740D01*
X441022Y299264D01*
X440237Y298807D01*
X439442Y298369D01*
X438636Y297951D01*
X437820Y297552D01*
X436994Y297174D01*
X436159Y296816D01*
X435316Y296479D01*
X434465Y296163D01*
X433606Y295867D01*
X432741Y295593D01*
X431868Y295340D01*
X430990Y295109D01*
X430107Y294899D01*
X429218Y294711D01*
X428326Y294545D01*
X427429Y294400D01*
X426529Y294278D01*
X425627Y294178D01*
X424722Y294100D01*
X423816Y294045D01*
X422908Y294011D01*
X422000Y294000D01*
X421092Y294011D01*
X420184Y294045D01*
X419278Y294100D01*
X418373Y294178D01*
X417471Y294278D01*
X416571Y294400D01*
X415674Y294545D01*
X414782Y294711D01*
X413893Y294899D01*
X413010Y295109D01*
X412132Y295340D01*
X411259Y295593D01*
X410394Y295867D01*
X409535Y296163D01*
X408684Y296479D01*
X407841Y296816D01*
X407006Y297174D01*
X406180Y297552D01*
X405364Y297951D01*
X404558Y298369D01*
X403763Y298807D01*
X402978Y299264D01*
X402205Y299740D01*
X401444Y300236D01*
X400695Y300749D01*
X399959Y301281D01*
X399236Y301831D01*
X398527Y302399D01*
X397833Y302983D01*
X397152Y303585D01*
X396487Y304203D01*
X395837Y304837D01*
X395203Y305487D01*
X394585Y306152D01*
X393983Y306833D01*
X393399Y307527D01*
X392831Y308236D01*
X392281Y308959D01*
X391749Y309695D01*
X391236Y310444D01*
X390740Y311205D01*
X390264Y311978D01*
X389807Y312763D01*
X389369Y313558D01*
X388951Y314364D01*
X388552Y315180D01*
X388174Y316006D01*
X387816Y316841D01*
X387479Y317684D01*
X387163Y318535D01*
X386867Y319394D01*
X386593Y320259D01*
X386340Y321132D01*
X386109Y322010D01*
X385899Y322893D01*
X385711Y323782D01*
X385545Y324674D01*
X385400Y325571D01*
X385278Y326471D01*
X385178Y327373D01*
X385100Y328278D01*
X385045Y329184D01*
X385011Y330092D01*
X385000Y331000D01*
X385000Y181000D02*
X385011Y181908D01*
X385045Y182816D01*
X385100Y183722D01*
X385178Y184627D01*
X385278Y185529D01*
X385400Y186429D01*
X385545Y187326D01*
X385711Y188218D01*
X385899Y189107D01*
X386109Y189990D01*
X386340Y190868D01*
X386593Y191741D01*
X386867Y192606D01*
X387163Y193465D01*
X387479Y194316D01*
X387816Y195159D01*
X388174Y195994D01*
X388552Y196820D01*
X388951Y197636D01*
X389369Y198442D01*
X389807Y199237D01*
X390264Y200022D01*
X390740Y200795D01*
X391236Y201556D01*
X391749Y202305D01*
X392281Y203041D01*
X392831Y203764D01*
X393399Y204473D01*
X393983Y205167D01*
X394585Y205848D01*
X395203Y206513D01*
X395837Y207163D01*
X396487Y207797D01*
X397152Y208415D01*
X397833Y209017D01*
X398527Y209601D01*
X399236Y210169D01*
X399959Y210719D01*
X400695Y211251D01*
X401444Y211764D01*
X402205Y212260D01*
X402978Y212736D01*
X403763Y213193D01*
X404558Y213631D01*
X405364Y214049D01*
X406180Y214448D01*
X407006Y214826D01*
X407841Y215184D01*
X408684Y215521D01*
X409535Y215837D01*
X410394Y216133D01*
X411259Y216407D01*
X412132Y216660D01*
X413010Y216891D01*
X413893Y217101D01*
X414782Y217289D01*
X415674Y217455D01*
X416571Y217600D01*
X417471Y217722D01*
X418373Y217822D01*
X419278Y217900D01*
X420184Y217955D01*
X421092Y217989D01*
X422000Y218000D01*
X422908Y217989D01*
X423816Y217955D01*
X424722Y217900D01*
X425627Y217822D01*
X426529Y217722D01*
X427429Y217600D01*
X428326Y217455D01*
X429218Y217289D01*
X430107Y217101D01*
X430990Y216891D01*
X431868Y216660D01*
X432741Y216407D01*
X433606Y216133D01*
X434465Y215837D01*
X435316Y215521D01*
X436159Y215184D01*
X436994Y214826D01*
X437820Y214448D01*
X438636Y214049D01*
X439442Y213631D01*
X440237Y213193D01*
X441022Y212736D01*
X441795Y212260D01*
X442556Y211764D01*
X443305Y211251D01*
X444041Y210719D01*
X444764Y210169D01*
X445473Y209601D01*
X446167Y209017D01*
X446848Y208415D01*
X447513Y207797D01*
X448163Y207163D01*
X448797Y206513D01*
X449415Y205848D01*
X450017Y205167D01*
X450601Y204473D01*
X451169Y203764D01*
X451719Y203041D01*
X452251Y202305D01*
X452764Y201556D01*
X453260Y200795D01*
X453736Y200022D01*
X454193Y199237D01*
X454631Y198442D01*
X455049Y197636D01*
X455448Y196820D01*
X455826Y195994D01*
X456184Y195159D01*
X456521Y194316D01*
X456837Y193465D01*
X457133Y192606D01*
X457407Y191741D01*
X457660Y190868D01*
X457891Y189990D01*
X458101Y189107D01*
X458289Y188218D01*
X458455Y187326D01*
X458600Y186429D01*
X458722Y185529D01*
X458822Y184627D01*
X458900Y183722D01*
X458955Y182816D01*
X458989Y181908D01*
X459000Y181000D01*
X458989Y180092D01*
X458955Y179184D01*
X458900Y178278D01*
X458822Y177373D01*
X458722Y176471D01*
X458600Y175571D01*
X458455Y174674D01*
X458289Y173782D01*
X458101Y172893D01*
X457891Y172010D01*
X457660Y171132D01*
X457407Y170259D01*
X457133Y169394D01*
X456837Y168535D01*
X456521Y167684D01*
X456184Y166841D01*
X455826Y166006D01*
X455448Y165180D01*
X455049Y164364D01*
X454631Y163558D01*
X454193Y162763D01*
X453736Y161978D01*
X453260Y161205D01*
X452764Y160444D01*
X452251Y159695D01*
X451719Y158959D01*
X451169Y158236D01*
X450601Y157527D01*
X450017Y156833D01*
X449415Y156152D01*
X448797Y155487D01*
X448163Y154837D01*
X447513Y154203D01*
X446848Y153585D01*
X446167Y152983D01*
X445473Y152399D01*
X444764Y151831D01*
X444041Y151281D01*
X443305Y150749D01*
X442556Y150236D01*
X441795Y149740D01*
X441022Y149264D01*
X440237Y148807D01*
X439442Y148369D01*
X438636Y147951D01*
X437820Y147552D01*
X436994Y147174D01*
X436159Y146816D01*
X435316Y146479D01*
X434465Y146163D01*
X433606Y145867D01*
X432741Y145593D01*
X431868Y145340D01*
X430990Y145109D01*
X430107Y144899D01*
X429218Y144711D01*
X428326Y144545D01*
X427429Y144400D01*
X426529Y144278D01*
X425627Y144178D01*
X424722Y144100D01*
X423816Y144045D01*
X422908Y144011D01*
X422000Y144000D01*
X421092Y144011D01*
X420184Y144045D01*
X419278Y144100D01*
X418373Y144178D01*
X417471Y144278D01*
X416571Y144400D01*
X415674Y144545D01*
X414782Y144711D01*
X413893Y144899D01*
X413010Y145109D01*
X412132Y145340D01*
X411259Y145593D01*
X410394Y145867D01*
X409535Y146163D01*
X408684Y146479D01*
X407841Y146816D01*
X407006Y147174D01*
X406180Y147552D01*
X405364Y147951D01*
X404558Y148369D01*
X403763Y148807D01*
X402978Y149264D01*
X402205Y149740D01*
X401444Y150236D01*
X400695Y150749D01*
X399959Y151281D01*
X399236Y151831D01*
X398527Y152399D01*
X397833Y152983D01*
X397152Y153585D01*
X396487Y154203D01*
X395837Y154837D01*
X395203Y155487D01*
X394585Y156152D01*
X393983Y156833D01*
X393399Y157527D01*
X392831Y158236D01*
X392281Y158959D01*
X391749Y159695D01*
X391236Y160444D01*
X390740Y161205D01*
X390264Y161978D01*
X389807Y162763D01*
X389369Y163558D01*
X388951Y164364D01*
X388552Y165180D01*
X388174Y166006D01*
X387816Y166841D01*
X387479Y167684D01*
X387163Y168535D01*
X386867Y169394D01*
X386593Y170259D01*
X386340Y171132D01*
X386109Y172010D01*
X385899Y172893D01*
X385711Y173782D01*
X385545Y174674D01*
X385400Y175571D01*
X385278Y176471D01*
X385178Y177373D01*
X385100Y178278D01*
X385045Y179184D01*
X385011Y180092D01*
X385000Y181000D01*
X670762Y403762D02*
X670762Y420018D01*
X675278Y420018D01*
X675411Y420016D01*
X675543Y420010D01*
X675675Y420000D01*
X675807Y419987D01*
X675939Y419969D01*
X676069Y419948D01*
X676200Y419923D01*
X676329Y419894D01*
X676457Y419861D01*
X676585Y419825D01*
X676711Y419785D01*
X676836Y419741D01*
X676960Y419693D01*
X677082Y419642D01*
X677203Y419587D01*
X677322Y419529D01*
X677440Y419467D01*
X677555Y419402D01*
X677669Y419333D01*
X677780Y419262D01*
X677889Y419186D01*
X677996Y419108D01*
X678101Y419027D01*
X678203Y418942D01*
X678303Y418855D01*
X678400Y418765D01*
X678495Y418672D01*
X678586Y418576D01*
X678675Y418478D01*
X678761Y418377D01*
X678844Y418273D01*
X678924Y418167D01*
X679000Y418059D01*
X679074Y417949D01*
X679144Y417836D01*
X679211Y417722D01*
X679274Y417605D01*
X679334Y417487D01*
X679391Y417367D01*
X679444Y417245D01*
X679493Y417122D01*
X679539Y416998D01*
X679581Y416872D01*
X679619Y416745D01*
X679654Y416617D01*
X679685Y416488D01*
X679712Y416359D01*
X679735Y416228D01*
X679755Y416097D01*
X679770Y415965D01*
X679782Y415833D01*
X679790Y415701D01*
X679794Y415568D01*
X679794Y415436D01*
X679790Y415303D01*
X679782Y415171D01*
X679770Y415039D01*
X679755Y414907D01*
X679735Y414776D01*
X679712Y414645D01*
X679685Y414516D01*
X679654Y414387D01*
X679619Y414259D01*
X679581Y414132D01*
X679539Y414006D01*
X679493Y413882D01*
X679444Y413759D01*
X679391Y413637D01*
X679334Y413517D01*
X679274Y413399D01*
X679211Y413282D01*
X679144Y413168D01*
X679074Y413055D01*
X679000Y412945D01*
X678924Y412837D01*
X678844Y412731D01*
X678761Y412627D01*
X678675Y412526D01*
X678586Y412428D01*
X678495Y412332D01*
X678400Y412239D01*
X678303Y412149D01*
X678203Y412062D01*
X678101Y411977D01*
X677996Y411896D01*
X677889Y411818D01*
X677780Y411742D01*
X677669Y411671D01*
X677555Y411602D01*
X677440Y411537D01*
X677322Y411475D01*
X677203Y411417D01*
X677082Y411362D01*
X676960Y411311D01*
X676836Y411263D01*
X676711Y411219D01*
X676585Y411179D01*
X676457Y411143D01*
X676329Y411110D01*
X676200Y411081D01*
X676069Y411056D01*
X675939Y411035D01*
X675807Y411017D01*
X675675Y411004D01*
X675543Y410994D01*
X675411Y410988D01*
X675278Y410986D01*
X675278Y410987D02*
X670762Y410987D01*
X676181Y410987D02*
X679793Y403762D01*
X686302Y416406D02*
X690817Y420018D01*
X690817Y403762D01*
X686302Y403762D02*
X695333Y403762D01*
X701933Y403762D02*
X707352Y403762D01*
X707470Y403764D01*
X707588Y403770D01*
X707706Y403779D01*
X707823Y403793D01*
X707940Y403810D01*
X708057Y403831D01*
X708172Y403856D01*
X708287Y403885D01*
X708401Y403918D01*
X708513Y403954D01*
X708624Y403994D01*
X708734Y404037D01*
X708843Y404084D01*
X708950Y404134D01*
X709055Y404189D01*
X709158Y404246D01*
X709259Y404307D01*
X709359Y404371D01*
X709456Y404438D01*
X709551Y404508D01*
X709643Y404582D01*
X709734Y404658D01*
X709821Y404738D01*
X709906Y404820D01*
X709988Y404905D01*
X710068Y404992D01*
X710144Y405083D01*
X710218Y405175D01*
X710288Y405270D01*
X710355Y405367D01*
X710419Y405467D01*
X710480Y405568D01*
X710537Y405671D01*
X710592Y405776D01*
X710642Y405883D01*
X710689Y405992D01*
X710732Y406102D01*
X710772Y406213D01*
X710808Y406325D01*
X710841Y406439D01*
X710870Y406554D01*
X710895Y406669D01*
X710916Y406786D01*
X710933Y406903D01*
X710947Y407020D01*
X710956Y407138D01*
X710962Y407256D01*
X710964Y407374D01*
X710964Y409181D01*
X710962Y409299D01*
X710956Y409417D01*
X710947Y409535D01*
X710933Y409652D01*
X710916Y409769D01*
X710895Y409886D01*
X710870Y410001D01*
X710841Y410116D01*
X710808Y410230D01*
X710772Y410342D01*
X710732Y410453D01*
X710689Y410563D01*
X710642Y410672D01*
X710592Y410779D01*
X710537Y410884D01*
X710480Y410987D01*
X710419Y411088D01*
X710355Y411188D01*
X710288Y411285D01*
X710218Y411380D01*
X710144Y411472D01*
X710068Y411563D01*
X709988Y411650D01*
X709906Y411735D01*
X709821Y411817D01*
X709734Y411897D01*
X709643Y411973D01*
X709551Y412047D01*
X709456Y412117D01*
X709359Y412184D01*
X709259Y412248D01*
X709158Y412309D01*
X709055Y412366D01*
X708950Y412421D01*
X708843Y412471D01*
X708734Y412518D01*
X708624Y412561D01*
X708513Y412601D01*
X708401Y412637D01*
X708287Y412670D01*
X708172Y412699D01*
X708057Y412724D01*
X707940Y412745D01*
X707823Y412762D01*
X707706Y412776D01*
X707588Y412785D01*
X707470Y412791D01*
X707352Y412793D01*
X701933Y412793D01*
X701933Y420018D01*
X710964Y420018D01*
D11*
X420351Y415858D02*
X417754Y415858D01*
X417655Y415860D01*
X417555Y415866D01*
X417456Y415875D01*
X417358Y415888D01*
X417260Y415905D01*
X417162Y415926D01*
X417066Y415951D01*
X416971Y415979D01*
X416877Y416011D01*
X416784Y416046D01*
X416692Y416085D01*
X416602Y416128D01*
X416514Y416173D01*
X416427Y416223D01*
X416343Y416275D01*
X416260Y416331D01*
X416180Y416389D01*
X416102Y416451D01*
X416027Y416516D01*
X415954Y416584D01*
X415884Y416654D01*
X415816Y416727D01*
X415751Y416802D01*
X415689Y416880D01*
X415631Y416960D01*
X415575Y417043D01*
X415523Y417127D01*
X415473Y417214D01*
X415428Y417302D01*
X415385Y417392D01*
X415346Y417484D01*
X415311Y417577D01*
X415279Y417671D01*
X415251Y417766D01*
X415226Y417862D01*
X415205Y417960D01*
X415188Y418058D01*
X415175Y418156D01*
X415166Y418255D01*
X415160Y418355D01*
X415158Y418454D01*
X415158Y424946D01*
X415160Y425045D01*
X415166Y425145D01*
X415175Y425244D01*
X415188Y425342D01*
X415205Y425440D01*
X415226Y425538D01*
X415251Y425634D01*
X415279Y425729D01*
X415311Y425823D01*
X415346Y425916D01*
X415385Y426008D01*
X415428Y426098D01*
X415473Y426186D01*
X415523Y426273D01*
X415575Y426357D01*
X415631Y426440D01*
X415689Y426520D01*
X415751Y426598D01*
X415816Y426673D01*
X415884Y426746D01*
X415954Y426816D01*
X416027Y426884D01*
X416102Y426949D01*
X416180Y427011D01*
X416260Y427069D01*
X416343Y427125D01*
X416427Y427177D01*
X416514Y427227D01*
X416602Y427272D01*
X416692Y427315D01*
X416784Y427354D01*
X416876Y427389D01*
X416971Y427421D01*
X417066Y427449D01*
X417162Y427474D01*
X417260Y427495D01*
X417358Y427512D01*
X417456Y427525D01*
X417555Y427534D01*
X417655Y427540D01*
X417754Y427542D01*
X420351Y427542D01*
X424716Y424946D02*
X427962Y427542D01*
X427962Y415858D01*
X431207Y415858D02*
X424716Y415858D01*
X578759Y2758D02*
X581356Y2758D01*
X578759Y2758D02*
X578660Y2760D01*
X578560Y2766D01*
X578461Y2775D01*
X578363Y2788D01*
X578265Y2805D01*
X578167Y2826D01*
X578071Y2851D01*
X577976Y2879D01*
X577882Y2911D01*
X577789Y2946D01*
X577697Y2985D01*
X577607Y3028D01*
X577519Y3073D01*
X577432Y3123D01*
X577348Y3175D01*
X577265Y3231D01*
X577185Y3289D01*
X577107Y3351D01*
X577032Y3416D01*
X576959Y3484D01*
X576889Y3554D01*
X576821Y3627D01*
X576756Y3702D01*
X576694Y3780D01*
X576636Y3860D01*
X576580Y3943D01*
X576528Y4027D01*
X576478Y4114D01*
X576433Y4202D01*
X576390Y4292D01*
X576351Y4384D01*
X576316Y4477D01*
X576284Y4571D01*
X576256Y4666D01*
X576231Y4762D01*
X576210Y4860D01*
X576193Y4958D01*
X576180Y5056D01*
X576171Y5155D01*
X576165Y5255D01*
X576163Y5354D01*
X576163Y11846D01*
X576165Y11945D01*
X576171Y12045D01*
X576180Y12144D01*
X576193Y12242D01*
X576210Y12340D01*
X576231Y12438D01*
X576256Y12534D01*
X576284Y12629D01*
X576316Y12723D01*
X576351Y12816D01*
X576390Y12908D01*
X576433Y12998D01*
X576478Y13086D01*
X576528Y13173D01*
X576580Y13257D01*
X576636Y13340D01*
X576694Y13420D01*
X576756Y13498D01*
X576821Y13573D01*
X576889Y13646D01*
X576959Y13716D01*
X577032Y13784D01*
X577107Y13849D01*
X577185Y13911D01*
X577265Y13969D01*
X577348Y14025D01*
X577432Y14077D01*
X577519Y14127D01*
X577607Y14172D01*
X577697Y14215D01*
X577789Y14254D01*
X577881Y14289D01*
X577976Y14321D01*
X578071Y14349D01*
X578167Y14374D01*
X578265Y14395D01*
X578363Y14412D01*
X578461Y14425D01*
X578560Y14434D01*
X578660Y14440D01*
X578759Y14442D01*
X581356Y14442D01*
X585721Y11846D02*
X588966Y14442D01*
X588966Y2758D01*
X585721Y2758D02*
X592212Y2758D01*
X597151Y8600D02*
X597154Y8830D01*
X597162Y9060D01*
X597176Y9289D01*
X597195Y9518D01*
X597220Y9747D01*
X597250Y9974D01*
X597285Y10202D01*
X597326Y10428D01*
X597372Y10653D01*
X597424Y10877D01*
X597481Y11099D01*
X597543Y11321D01*
X597611Y11540D01*
X597684Y11758D01*
X597762Y11975D01*
X597845Y12189D01*
X597933Y12401D01*
X598026Y12611D01*
X598125Y12819D01*
X598124Y12819D02*
X598157Y12909D01*
X598193Y12998D01*
X598233Y13086D01*
X598277Y13171D01*
X598324Y13255D01*
X598374Y13337D01*
X598428Y13417D01*
X598484Y13494D01*
X598544Y13570D01*
X598607Y13643D01*
X598672Y13713D01*
X598741Y13781D01*
X598812Y13845D01*
X598885Y13907D01*
X598961Y13966D01*
X599039Y14022D01*
X599120Y14075D01*
X599202Y14124D01*
X599286Y14170D01*
X599373Y14213D01*
X599460Y14252D01*
X599550Y14288D01*
X599640Y14320D01*
X599732Y14348D01*
X599825Y14373D01*
X599919Y14394D01*
X600013Y14411D01*
X600108Y14425D01*
X600204Y14434D01*
X600300Y14440D01*
X600396Y14442D01*
X600492Y14440D01*
X600588Y14434D01*
X600684Y14425D01*
X600779Y14411D01*
X600873Y14394D01*
X600967Y14373D01*
X601060Y14348D01*
X601152Y14320D01*
X601242Y14288D01*
X601332Y14252D01*
X601419Y14213D01*
X601506Y14170D01*
X601590Y14124D01*
X601672Y14075D01*
X601753Y14022D01*
X601831Y13966D01*
X601907Y13907D01*
X601980Y13845D01*
X602051Y13781D01*
X602120Y13713D01*
X602185Y13643D01*
X602248Y13570D01*
X602308Y13494D01*
X602364Y13417D01*
X602418Y13337D01*
X602468Y13255D01*
X602515Y13171D01*
X602559Y13086D01*
X602599Y12998D01*
X602635Y12909D01*
X602668Y12819D01*
X602669Y12819D02*
X602768Y12612D01*
X602861Y12402D01*
X602949Y12189D01*
X603032Y11975D01*
X603110Y11759D01*
X603183Y11541D01*
X603251Y11321D01*
X603313Y11100D01*
X603370Y10877D01*
X603422Y10653D01*
X603468Y10428D01*
X603509Y10202D01*
X603544Y9975D01*
X603574Y9747D01*
X603599Y9518D01*
X603618Y9289D01*
X603632Y9060D01*
X603640Y8830D01*
X603643Y8600D01*
X597151Y8600D02*
X597154Y8370D01*
X597162Y8140D01*
X597176Y7911D01*
X597195Y7682D01*
X597220Y7453D01*
X597250Y7225D01*
X597285Y6998D01*
X597326Y6772D01*
X597372Y6547D01*
X597424Y6323D01*
X597481Y6100D01*
X597543Y5879D01*
X597611Y5659D01*
X597684Y5441D01*
X597762Y5225D01*
X597845Y5011D01*
X597933Y4799D01*
X598026Y4588D01*
X598125Y4381D01*
X598124Y4381D02*
X598157Y4291D01*
X598193Y4202D01*
X598234Y4114D01*
X598277Y4029D01*
X598324Y3945D01*
X598374Y3863D01*
X598428Y3783D01*
X598484Y3706D01*
X598544Y3630D01*
X598607Y3557D01*
X598672Y3487D01*
X598741Y3419D01*
X598812Y3355D01*
X598885Y3293D01*
X598961Y3234D01*
X599039Y3178D01*
X599120Y3125D01*
X599202Y3076D01*
X599286Y3030D01*
X599373Y2987D01*
X599460Y2948D01*
X599550Y2912D01*
X599640Y2880D01*
X599732Y2852D01*
X599825Y2827D01*
X599919Y2806D01*
X600013Y2789D01*
X600108Y2775D01*
X600204Y2766D01*
X600300Y2760D01*
X600396Y2758D01*
X602668Y4381D02*
X602767Y4588D01*
X602860Y4799D01*
X602948Y5011D01*
X603031Y5225D01*
X603109Y5441D01*
X603182Y5659D01*
X603250Y5879D01*
X603312Y6100D01*
X603369Y6323D01*
X603421Y6547D01*
X603467Y6772D01*
X603508Y6998D01*
X603543Y7225D01*
X603573Y7453D01*
X603598Y7682D01*
X603617Y7911D01*
X603631Y8140D01*
X603639Y8370D01*
X603642Y8600D01*
X602668Y4381D02*
X602635Y4291D01*
X602599Y4202D01*
X602559Y4114D01*
X602515Y4029D01*
X602468Y3945D01*
X602418Y3863D01*
X602364Y3783D01*
X602308Y3706D01*
X602248Y3630D01*
X602185Y3557D01*
X602120Y3487D01*
X602051Y3419D01*
X601980Y3355D01*
X601907Y3293D01*
X601831Y3234D01*
X601753Y3178D01*
X601672Y3125D01*
X601590Y3076D01*
X601506Y3030D01*
X601419Y2987D01*
X601332Y2948D01*
X601242Y2912D01*
X601152Y2880D01*
X601060Y2852D01*
X600967Y2827D01*
X600873Y2806D01*
X600779Y2789D01*
X600684Y2775D01*
X600588Y2766D01*
X600492Y2760D01*
X600396Y2758D01*
X597800Y5354D02*
X602993Y11846D01*
X133001Y192208D02*
X130404Y192208D01*
X130305Y192210D01*
X130205Y192216D01*
X130106Y192225D01*
X130008Y192238D01*
X129910Y192255D01*
X129812Y192276D01*
X129716Y192301D01*
X129621Y192329D01*
X129527Y192361D01*
X129434Y192396D01*
X129342Y192435D01*
X129252Y192478D01*
X129164Y192523D01*
X129077Y192573D01*
X128993Y192625D01*
X128910Y192681D01*
X128830Y192739D01*
X128752Y192801D01*
X128677Y192866D01*
X128604Y192934D01*
X128534Y193004D01*
X128466Y193077D01*
X128401Y193152D01*
X128339Y193230D01*
X128281Y193310D01*
X128225Y193393D01*
X128173Y193477D01*
X128123Y193564D01*
X128078Y193652D01*
X128035Y193742D01*
X127996Y193834D01*
X127961Y193927D01*
X127929Y194021D01*
X127901Y194116D01*
X127876Y194212D01*
X127855Y194310D01*
X127838Y194408D01*
X127825Y194506D01*
X127816Y194605D01*
X127810Y194705D01*
X127808Y194804D01*
X127808Y201296D01*
X127810Y201395D01*
X127816Y201495D01*
X127825Y201594D01*
X127838Y201692D01*
X127855Y201790D01*
X127876Y201888D01*
X127901Y201984D01*
X127929Y202079D01*
X127961Y202173D01*
X127996Y202266D01*
X128035Y202358D01*
X128078Y202448D01*
X128123Y202536D01*
X128173Y202623D01*
X128225Y202707D01*
X128281Y202790D01*
X128339Y202870D01*
X128401Y202948D01*
X128466Y203023D01*
X128534Y203096D01*
X128604Y203166D01*
X128677Y203234D01*
X128752Y203299D01*
X128830Y203361D01*
X128910Y203419D01*
X128993Y203475D01*
X129077Y203527D01*
X129164Y203577D01*
X129252Y203622D01*
X129342Y203665D01*
X129434Y203704D01*
X129526Y203739D01*
X129621Y203771D01*
X129716Y203799D01*
X129812Y203824D01*
X129910Y203845D01*
X130008Y203862D01*
X130106Y203875D01*
X130205Y203884D01*
X130305Y203890D01*
X130404Y203892D01*
X133001Y203892D01*
X137366Y201296D02*
X140612Y203892D01*
X140612Y192208D01*
X143857Y192208D02*
X137366Y192208D01*
X148796Y201296D02*
X152042Y203892D01*
X152042Y192208D01*
X155287Y192208D02*
X148796Y192208D01*
X378454Y136558D02*
X381051Y136558D01*
X378454Y136558D02*
X378355Y136560D01*
X378255Y136566D01*
X378156Y136575D01*
X378058Y136588D01*
X377960Y136605D01*
X377862Y136626D01*
X377766Y136651D01*
X377671Y136679D01*
X377577Y136711D01*
X377484Y136746D01*
X377392Y136785D01*
X377302Y136828D01*
X377214Y136873D01*
X377127Y136923D01*
X377043Y136975D01*
X376960Y137031D01*
X376880Y137089D01*
X376802Y137151D01*
X376727Y137216D01*
X376654Y137284D01*
X376584Y137354D01*
X376516Y137427D01*
X376451Y137502D01*
X376389Y137580D01*
X376331Y137660D01*
X376275Y137743D01*
X376223Y137827D01*
X376173Y137914D01*
X376128Y138002D01*
X376085Y138092D01*
X376046Y138184D01*
X376011Y138277D01*
X375979Y138371D01*
X375951Y138466D01*
X375926Y138562D01*
X375905Y138660D01*
X375888Y138758D01*
X375875Y138856D01*
X375866Y138955D01*
X375860Y139055D01*
X375858Y139154D01*
X375858Y145646D01*
X375860Y145745D01*
X375866Y145845D01*
X375875Y145944D01*
X375888Y146042D01*
X375905Y146140D01*
X375926Y146238D01*
X375951Y146334D01*
X375979Y146429D01*
X376011Y146523D01*
X376046Y146616D01*
X376085Y146708D01*
X376128Y146798D01*
X376173Y146886D01*
X376223Y146973D01*
X376275Y147057D01*
X376331Y147140D01*
X376389Y147220D01*
X376451Y147298D01*
X376516Y147373D01*
X376584Y147446D01*
X376654Y147516D01*
X376727Y147584D01*
X376802Y147649D01*
X376880Y147711D01*
X376960Y147769D01*
X377043Y147825D01*
X377127Y147877D01*
X377214Y147927D01*
X377302Y147972D01*
X377392Y148015D01*
X377484Y148054D01*
X377576Y148089D01*
X377671Y148121D01*
X377766Y148149D01*
X377862Y148174D01*
X377960Y148195D01*
X378058Y148212D01*
X378156Y148225D01*
X378255Y148234D01*
X378355Y148240D01*
X378454Y148242D01*
X381051Y148242D01*
X385416Y145646D02*
X388662Y148242D01*
X388662Y136558D01*
X391907Y136558D02*
X385416Y136558D01*
X400416Y148242D02*
X400523Y148240D01*
X400629Y148234D01*
X400735Y148224D01*
X400841Y148211D01*
X400947Y148193D01*
X401051Y148172D01*
X401155Y148147D01*
X401258Y148118D01*
X401359Y148086D01*
X401459Y148049D01*
X401558Y148009D01*
X401656Y147966D01*
X401752Y147919D01*
X401846Y147868D01*
X401938Y147814D01*
X402028Y147757D01*
X402116Y147697D01*
X402201Y147633D01*
X402284Y147566D01*
X402365Y147496D01*
X402443Y147424D01*
X402519Y147348D01*
X402591Y147270D01*
X402661Y147189D01*
X402728Y147106D01*
X402792Y147021D01*
X402852Y146933D01*
X402909Y146843D01*
X402963Y146751D01*
X403014Y146657D01*
X403061Y146561D01*
X403104Y146463D01*
X403144Y146364D01*
X403181Y146264D01*
X403213Y146163D01*
X403242Y146060D01*
X403267Y145956D01*
X403288Y145852D01*
X403306Y145746D01*
X403319Y145640D01*
X403329Y145534D01*
X403335Y145428D01*
X403337Y145321D01*
X400416Y148242D02*
X400295Y148240D01*
X400174Y148234D01*
X400054Y148224D01*
X399933Y148211D01*
X399814Y148193D01*
X399694Y148172D01*
X399576Y148147D01*
X399459Y148118D01*
X399342Y148085D01*
X399227Y148049D01*
X399113Y148008D01*
X399000Y147965D01*
X398888Y147917D01*
X398779Y147866D01*
X398671Y147811D01*
X398564Y147753D01*
X398460Y147692D01*
X398358Y147627D01*
X398258Y147559D01*
X398160Y147488D01*
X398064Y147414D01*
X397971Y147337D01*
X397881Y147256D01*
X397793Y147173D01*
X397708Y147087D01*
X397625Y146998D01*
X397546Y146907D01*
X397469Y146813D01*
X397396Y146717D01*
X397326Y146619D01*
X397259Y146518D01*
X397195Y146415D01*
X397135Y146310D01*
X397078Y146203D01*
X397024Y146095D01*
X396974Y145985D01*
X396928Y145873D01*
X396885Y145760D01*
X396846Y145645D01*
X402364Y143049D02*
X402443Y143126D01*
X402519Y143207D01*
X402592Y143290D01*
X402662Y143375D01*
X402729Y143463D01*
X402793Y143553D01*
X402853Y143645D01*
X402910Y143740D01*
X402964Y143836D01*
X403015Y143934D01*
X403062Y144034D01*
X403106Y144136D01*
X403146Y144239D01*
X403182Y144343D01*
X403214Y144449D01*
X403243Y144555D01*
X403268Y144663D01*
X403290Y144771D01*
X403307Y144881D01*
X403321Y144990D01*
X403330Y145100D01*
X403336Y145211D01*
X403338Y145321D01*
X402364Y143049D02*
X396846Y136558D01*
X403337Y136558D01*
X417754Y394858D02*
X420351Y394858D01*
X417754Y394858D02*
X417655Y394860D01*
X417555Y394866D01*
X417456Y394875D01*
X417358Y394888D01*
X417260Y394905D01*
X417162Y394926D01*
X417066Y394951D01*
X416971Y394979D01*
X416877Y395011D01*
X416784Y395046D01*
X416692Y395085D01*
X416602Y395128D01*
X416514Y395173D01*
X416427Y395223D01*
X416343Y395275D01*
X416260Y395331D01*
X416180Y395389D01*
X416102Y395451D01*
X416027Y395516D01*
X415954Y395584D01*
X415884Y395654D01*
X415816Y395727D01*
X415751Y395802D01*
X415689Y395880D01*
X415631Y395960D01*
X415575Y396043D01*
X415523Y396127D01*
X415473Y396214D01*
X415428Y396302D01*
X415385Y396392D01*
X415346Y396484D01*
X415311Y396577D01*
X415279Y396671D01*
X415251Y396766D01*
X415226Y396862D01*
X415205Y396960D01*
X415188Y397058D01*
X415175Y397156D01*
X415166Y397255D01*
X415160Y397355D01*
X415158Y397454D01*
X415158Y403946D01*
X415160Y404045D01*
X415166Y404145D01*
X415175Y404244D01*
X415188Y404342D01*
X415205Y404440D01*
X415226Y404538D01*
X415251Y404634D01*
X415279Y404729D01*
X415311Y404823D01*
X415346Y404916D01*
X415385Y405008D01*
X415428Y405098D01*
X415473Y405186D01*
X415523Y405273D01*
X415575Y405357D01*
X415631Y405440D01*
X415689Y405520D01*
X415751Y405598D01*
X415816Y405673D01*
X415884Y405746D01*
X415954Y405816D01*
X416027Y405884D01*
X416102Y405949D01*
X416180Y406011D01*
X416260Y406069D01*
X416343Y406125D01*
X416427Y406177D01*
X416514Y406227D01*
X416602Y406272D01*
X416692Y406315D01*
X416784Y406354D01*
X416876Y406389D01*
X416971Y406421D01*
X417066Y406449D01*
X417162Y406474D01*
X417260Y406495D01*
X417358Y406512D01*
X417456Y406525D01*
X417555Y406534D01*
X417655Y406540D01*
X417754Y406542D01*
X420351Y406542D01*
X428286Y406542D02*
X428393Y406540D01*
X428499Y406534D01*
X428605Y406524D01*
X428711Y406511D01*
X428817Y406493D01*
X428921Y406472D01*
X429025Y406447D01*
X429128Y406418D01*
X429229Y406386D01*
X429329Y406349D01*
X429428Y406309D01*
X429526Y406266D01*
X429622Y406219D01*
X429716Y406168D01*
X429808Y406114D01*
X429898Y406057D01*
X429986Y405997D01*
X430071Y405933D01*
X430154Y405866D01*
X430235Y405796D01*
X430313Y405724D01*
X430389Y405648D01*
X430461Y405570D01*
X430531Y405489D01*
X430598Y405406D01*
X430662Y405321D01*
X430722Y405233D01*
X430779Y405143D01*
X430833Y405051D01*
X430884Y404957D01*
X430931Y404861D01*
X430974Y404763D01*
X431014Y404664D01*
X431051Y404564D01*
X431083Y404463D01*
X431112Y404360D01*
X431137Y404256D01*
X431158Y404152D01*
X431176Y404046D01*
X431189Y403940D01*
X431199Y403834D01*
X431205Y403728D01*
X431207Y403621D01*
X428286Y406542D02*
X428165Y406540D01*
X428044Y406534D01*
X427924Y406524D01*
X427803Y406511D01*
X427684Y406493D01*
X427564Y406472D01*
X427446Y406447D01*
X427329Y406418D01*
X427212Y406385D01*
X427097Y406349D01*
X426983Y406308D01*
X426870Y406265D01*
X426758Y406217D01*
X426649Y406166D01*
X426541Y406111D01*
X426434Y406053D01*
X426330Y405992D01*
X426228Y405927D01*
X426128Y405859D01*
X426030Y405788D01*
X425934Y405714D01*
X425841Y405637D01*
X425751Y405556D01*
X425663Y405473D01*
X425578Y405387D01*
X425495Y405298D01*
X425416Y405207D01*
X425339Y405113D01*
X425266Y405017D01*
X425196Y404919D01*
X425129Y404818D01*
X425065Y404715D01*
X425005Y404610D01*
X424948Y404503D01*
X424894Y404395D01*
X424844Y404285D01*
X424798Y404173D01*
X424755Y404060D01*
X424716Y403945D01*
X430234Y401349D02*
X430313Y401426D01*
X430389Y401507D01*
X430462Y401590D01*
X430532Y401675D01*
X430599Y401763D01*
X430663Y401853D01*
X430723Y401945D01*
X430780Y402040D01*
X430834Y402136D01*
X430885Y402234D01*
X430932Y402334D01*
X430976Y402436D01*
X431016Y402539D01*
X431052Y402643D01*
X431084Y402749D01*
X431113Y402855D01*
X431138Y402963D01*
X431160Y403071D01*
X431177Y403181D01*
X431191Y403290D01*
X431200Y403400D01*
X431206Y403511D01*
X431208Y403621D01*
X430234Y401349D02*
X424716Y394858D01*
X431207Y394858D01*
X206792Y306001D02*
X206792Y303404D01*
X206790Y303305D01*
X206784Y303205D01*
X206775Y303106D01*
X206762Y303008D01*
X206745Y302910D01*
X206724Y302812D01*
X206699Y302716D01*
X206671Y302621D01*
X206639Y302527D01*
X206604Y302434D01*
X206565Y302342D01*
X206522Y302252D01*
X206477Y302164D01*
X206427Y302077D01*
X206375Y301993D01*
X206319Y301910D01*
X206261Y301830D01*
X206199Y301752D01*
X206134Y301677D01*
X206066Y301604D01*
X205996Y301534D01*
X205923Y301466D01*
X205848Y301401D01*
X205770Y301339D01*
X205690Y301281D01*
X205607Y301225D01*
X205523Y301173D01*
X205436Y301123D01*
X205348Y301078D01*
X205258Y301035D01*
X205166Y300996D01*
X205073Y300961D01*
X204979Y300929D01*
X204884Y300901D01*
X204788Y300876D01*
X204690Y300855D01*
X204592Y300838D01*
X204494Y300825D01*
X204395Y300816D01*
X204295Y300810D01*
X204196Y300808D01*
X197704Y300808D01*
X197605Y300810D01*
X197505Y300816D01*
X197406Y300825D01*
X197308Y300838D01*
X197210Y300856D01*
X197112Y300876D01*
X197016Y300901D01*
X196920Y300929D01*
X196826Y300961D01*
X196733Y300996D01*
X196642Y301035D01*
X196552Y301078D01*
X196463Y301123D01*
X196377Y301173D01*
X196292Y301225D01*
X196210Y301281D01*
X196130Y301340D01*
X196052Y301401D01*
X195976Y301466D01*
X195903Y301534D01*
X195833Y301604D01*
X195765Y301677D01*
X195700Y301753D01*
X195639Y301831D01*
X195580Y301911D01*
X195524Y301993D01*
X195472Y302078D01*
X195423Y302164D01*
X195377Y302253D01*
X195334Y302343D01*
X195295Y302434D01*
X195260Y302527D01*
X195228Y302621D01*
X195200Y302717D01*
X195175Y302813D01*
X195155Y302911D01*
X195137Y303009D01*
X195124Y303107D01*
X195115Y303206D01*
X195109Y303305D01*
X195107Y303405D01*
X195108Y303404D02*
X195108Y306001D01*
X195108Y313936D02*
X195110Y314043D01*
X195116Y314149D01*
X195126Y314255D01*
X195139Y314361D01*
X195157Y314467D01*
X195178Y314571D01*
X195203Y314675D01*
X195232Y314778D01*
X195264Y314879D01*
X195301Y314979D01*
X195341Y315078D01*
X195384Y315176D01*
X195431Y315272D01*
X195482Y315366D01*
X195536Y315458D01*
X195593Y315548D01*
X195653Y315636D01*
X195717Y315721D01*
X195784Y315804D01*
X195854Y315885D01*
X195926Y315963D01*
X196002Y316039D01*
X196080Y316111D01*
X196161Y316181D01*
X196244Y316248D01*
X196329Y316312D01*
X196417Y316372D01*
X196507Y316429D01*
X196599Y316483D01*
X196693Y316534D01*
X196789Y316581D01*
X196887Y316624D01*
X196986Y316664D01*
X197086Y316701D01*
X197187Y316733D01*
X197290Y316762D01*
X197394Y316787D01*
X197498Y316808D01*
X197604Y316826D01*
X197710Y316839D01*
X197816Y316849D01*
X197922Y316855D01*
X198029Y316857D01*
X195108Y313936D02*
X195110Y313815D01*
X195116Y313694D01*
X195126Y313574D01*
X195139Y313453D01*
X195157Y313334D01*
X195178Y313214D01*
X195203Y313096D01*
X195232Y312979D01*
X195265Y312862D01*
X195301Y312747D01*
X195342Y312633D01*
X195385Y312520D01*
X195433Y312408D01*
X195484Y312299D01*
X195539Y312191D01*
X195597Y312084D01*
X195658Y311980D01*
X195723Y311878D01*
X195791Y311778D01*
X195862Y311680D01*
X195936Y311584D01*
X196013Y311491D01*
X196094Y311401D01*
X196177Y311313D01*
X196263Y311228D01*
X196352Y311145D01*
X196443Y311066D01*
X196537Y310989D01*
X196633Y310916D01*
X196731Y310846D01*
X196832Y310779D01*
X196935Y310715D01*
X197040Y310655D01*
X197147Y310597D01*
X197255Y310544D01*
X197365Y310494D01*
X197477Y310448D01*
X197590Y310405D01*
X197705Y310366D01*
X200301Y315883D02*
X200223Y315962D01*
X200143Y316038D01*
X200060Y316111D01*
X199974Y316181D01*
X199887Y316248D01*
X199796Y316312D01*
X199704Y316372D01*
X199610Y316430D01*
X199513Y316484D01*
X199415Y316534D01*
X199315Y316581D01*
X199214Y316625D01*
X199111Y316665D01*
X199006Y316701D01*
X198901Y316733D01*
X198794Y316762D01*
X198687Y316787D01*
X198578Y316809D01*
X198469Y316826D01*
X198360Y316840D01*
X198250Y316849D01*
X198139Y316855D01*
X198029Y316857D01*
X200301Y315884D02*
X206792Y310366D01*
X206792Y316857D01*
X197704Y321796D02*
X195108Y325042D01*
X206792Y325042D01*
X206792Y328287D02*
X206792Y321796D01*
X471142Y401754D02*
X471142Y404351D01*
X471142Y401754D02*
X471140Y401655D01*
X471134Y401555D01*
X471125Y401456D01*
X471112Y401358D01*
X471095Y401260D01*
X471074Y401162D01*
X471049Y401066D01*
X471021Y400971D01*
X470989Y400877D01*
X470954Y400784D01*
X470915Y400692D01*
X470872Y400602D01*
X470827Y400514D01*
X470777Y400427D01*
X470725Y400343D01*
X470669Y400260D01*
X470611Y400180D01*
X470549Y400102D01*
X470484Y400027D01*
X470416Y399954D01*
X470346Y399884D01*
X470273Y399816D01*
X470198Y399751D01*
X470120Y399689D01*
X470040Y399631D01*
X469957Y399575D01*
X469873Y399523D01*
X469786Y399473D01*
X469698Y399428D01*
X469608Y399385D01*
X469516Y399346D01*
X469423Y399311D01*
X469329Y399279D01*
X469234Y399251D01*
X469138Y399226D01*
X469040Y399205D01*
X468942Y399188D01*
X468844Y399175D01*
X468745Y399166D01*
X468645Y399160D01*
X468546Y399158D01*
X462054Y399158D01*
X461955Y399160D01*
X461855Y399166D01*
X461756Y399175D01*
X461658Y399188D01*
X461560Y399206D01*
X461462Y399226D01*
X461366Y399251D01*
X461270Y399279D01*
X461176Y399311D01*
X461083Y399346D01*
X460992Y399385D01*
X460902Y399428D01*
X460813Y399473D01*
X460727Y399523D01*
X460642Y399575D01*
X460560Y399631D01*
X460480Y399690D01*
X460402Y399751D01*
X460326Y399816D01*
X460253Y399884D01*
X460183Y399954D01*
X460115Y400027D01*
X460050Y400103D01*
X459989Y400181D01*
X459930Y400261D01*
X459874Y400343D01*
X459822Y400428D01*
X459773Y400514D01*
X459727Y400603D01*
X459684Y400693D01*
X459645Y400784D01*
X459610Y400877D01*
X459578Y400971D01*
X459550Y401067D01*
X459525Y401163D01*
X459505Y401261D01*
X459487Y401359D01*
X459474Y401457D01*
X459465Y401556D01*
X459459Y401655D01*
X459457Y401755D01*
X459458Y401754D02*
X459458Y404351D01*
X471142Y408716D02*
X471142Y411962D01*
X471140Y412075D01*
X471134Y412188D01*
X471124Y412301D01*
X471110Y412414D01*
X471093Y412526D01*
X471071Y412637D01*
X471046Y412747D01*
X471016Y412857D01*
X470983Y412965D01*
X470946Y413072D01*
X470906Y413178D01*
X470861Y413282D01*
X470813Y413385D01*
X470762Y413486D01*
X470707Y413585D01*
X470649Y413682D01*
X470587Y413777D01*
X470522Y413870D01*
X470454Y413960D01*
X470383Y414048D01*
X470308Y414134D01*
X470231Y414217D01*
X470151Y414297D01*
X470068Y414374D01*
X469982Y414449D01*
X469894Y414520D01*
X469804Y414588D01*
X469711Y414653D01*
X469616Y414715D01*
X469519Y414773D01*
X469420Y414828D01*
X469319Y414879D01*
X469216Y414927D01*
X469112Y414972D01*
X469006Y415012D01*
X468899Y415049D01*
X468791Y415082D01*
X468681Y415112D01*
X468571Y415137D01*
X468460Y415159D01*
X468348Y415176D01*
X468235Y415190D01*
X468122Y415200D01*
X468009Y415206D01*
X467896Y415208D01*
X467783Y415206D01*
X467670Y415200D01*
X467557Y415190D01*
X467444Y415176D01*
X467332Y415159D01*
X467221Y415137D01*
X467111Y415112D01*
X467001Y415082D01*
X466893Y415049D01*
X466786Y415012D01*
X466680Y414972D01*
X466576Y414927D01*
X466473Y414879D01*
X466372Y414828D01*
X466273Y414773D01*
X466176Y414715D01*
X466081Y414653D01*
X465988Y414588D01*
X465898Y414520D01*
X465810Y414449D01*
X465724Y414374D01*
X465641Y414297D01*
X465561Y414217D01*
X465484Y414134D01*
X465409Y414048D01*
X465338Y413960D01*
X465270Y413870D01*
X465205Y413777D01*
X465143Y413682D01*
X465085Y413585D01*
X465030Y413486D01*
X464979Y413385D01*
X464931Y413282D01*
X464886Y413178D01*
X464846Y413072D01*
X464809Y412965D01*
X464776Y412857D01*
X464746Y412747D01*
X464721Y412637D01*
X464699Y412526D01*
X464682Y412414D01*
X464668Y412301D01*
X464658Y412188D01*
X464652Y412075D01*
X464650Y411962D01*
X459458Y412611D02*
X459458Y408716D01*
X459458Y412611D02*
X459460Y412712D01*
X459466Y412812D01*
X459476Y412912D01*
X459489Y413012D01*
X459507Y413111D01*
X459528Y413210D01*
X459553Y413307D01*
X459582Y413404D01*
X459615Y413499D01*
X459651Y413593D01*
X459691Y413685D01*
X459734Y413776D01*
X459781Y413865D01*
X459831Y413952D01*
X459885Y414038D01*
X459942Y414121D01*
X460002Y414201D01*
X460065Y414280D01*
X460132Y414356D01*
X460201Y414429D01*
X460273Y414499D01*
X460347Y414567D01*
X460424Y414632D01*
X460504Y414693D01*
X460586Y414752D01*
X460670Y414807D01*
X460756Y414859D01*
X460844Y414908D01*
X460934Y414953D01*
X461026Y414995D01*
X461119Y415033D01*
X461214Y415067D01*
X461309Y415098D01*
X461406Y415125D01*
X461504Y415148D01*
X461603Y415168D01*
X461703Y415183D01*
X461803Y415195D01*
X461903Y415203D01*
X462004Y415207D01*
X462104Y415207D01*
X462205Y415203D01*
X462305Y415195D01*
X462405Y415183D01*
X462505Y415168D01*
X462604Y415148D01*
X462702Y415125D01*
X462799Y415098D01*
X462894Y415067D01*
X462989Y415033D01*
X463082Y414995D01*
X463174Y414953D01*
X463264Y414908D01*
X463352Y414859D01*
X463438Y414807D01*
X463522Y414752D01*
X463604Y414693D01*
X463684Y414632D01*
X463761Y414567D01*
X463835Y414499D01*
X463907Y414429D01*
X463976Y414356D01*
X464043Y414280D01*
X464106Y414201D01*
X464166Y414121D01*
X464223Y414038D01*
X464277Y413952D01*
X464327Y413865D01*
X464374Y413776D01*
X464417Y413685D01*
X464457Y413593D01*
X464493Y413499D01*
X464526Y413404D01*
X464555Y413307D01*
X464580Y413210D01*
X464601Y413111D01*
X464619Y413012D01*
X464632Y412912D01*
X464642Y412812D01*
X464648Y412712D01*
X464650Y412611D01*
X464651Y412611D02*
X464651Y410014D01*
X505142Y404351D02*
X505142Y401754D01*
X505140Y401655D01*
X505134Y401555D01*
X505125Y401456D01*
X505112Y401358D01*
X505095Y401260D01*
X505074Y401162D01*
X505049Y401066D01*
X505021Y400971D01*
X504989Y400877D01*
X504954Y400784D01*
X504915Y400692D01*
X504872Y400602D01*
X504827Y400514D01*
X504777Y400427D01*
X504725Y400343D01*
X504669Y400260D01*
X504611Y400180D01*
X504549Y400102D01*
X504484Y400027D01*
X504416Y399954D01*
X504346Y399884D01*
X504273Y399816D01*
X504198Y399751D01*
X504120Y399689D01*
X504040Y399631D01*
X503957Y399575D01*
X503873Y399523D01*
X503786Y399473D01*
X503698Y399428D01*
X503608Y399385D01*
X503516Y399346D01*
X503423Y399311D01*
X503329Y399279D01*
X503234Y399251D01*
X503138Y399226D01*
X503040Y399205D01*
X502942Y399188D01*
X502844Y399175D01*
X502745Y399166D01*
X502645Y399160D01*
X502546Y399158D01*
X496054Y399158D01*
X495955Y399160D01*
X495855Y399166D01*
X495756Y399175D01*
X495658Y399188D01*
X495560Y399206D01*
X495462Y399226D01*
X495366Y399251D01*
X495270Y399279D01*
X495176Y399311D01*
X495083Y399346D01*
X494992Y399385D01*
X494902Y399428D01*
X494813Y399473D01*
X494727Y399523D01*
X494642Y399575D01*
X494560Y399631D01*
X494480Y399690D01*
X494402Y399751D01*
X494326Y399816D01*
X494253Y399884D01*
X494183Y399954D01*
X494115Y400027D01*
X494050Y400103D01*
X493989Y400181D01*
X493930Y400261D01*
X493874Y400343D01*
X493822Y400428D01*
X493773Y400514D01*
X493727Y400603D01*
X493684Y400693D01*
X493645Y400784D01*
X493610Y400877D01*
X493578Y400971D01*
X493550Y401067D01*
X493525Y401163D01*
X493505Y401261D01*
X493487Y401359D01*
X493474Y401457D01*
X493465Y401556D01*
X493459Y401655D01*
X493457Y401755D01*
X493458Y401754D02*
X493458Y404351D01*
X493458Y411313D02*
X502546Y408716D01*
X502546Y415207D01*
X499949Y413260D02*
X505142Y413260D01*
X540142Y404351D02*
X540142Y401754D01*
X540140Y401655D01*
X540134Y401555D01*
X540125Y401456D01*
X540112Y401358D01*
X540095Y401260D01*
X540074Y401162D01*
X540049Y401066D01*
X540021Y400971D01*
X539989Y400877D01*
X539954Y400784D01*
X539915Y400692D01*
X539872Y400602D01*
X539827Y400514D01*
X539777Y400427D01*
X539725Y400343D01*
X539669Y400260D01*
X539611Y400180D01*
X539549Y400102D01*
X539484Y400027D01*
X539416Y399954D01*
X539346Y399884D01*
X539273Y399816D01*
X539198Y399751D01*
X539120Y399689D01*
X539040Y399631D01*
X538957Y399575D01*
X538873Y399523D01*
X538786Y399473D01*
X538698Y399428D01*
X538608Y399385D01*
X538516Y399346D01*
X538423Y399311D01*
X538329Y399279D01*
X538234Y399251D01*
X538138Y399226D01*
X538040Y399205D01*
X537942Y399188D01*
X537844Y399175D01*
X537745Y399166D01*
X537645Y399160D01*
X537546Y399158D01*
X531054Y399158D01*
X530955Y399160D01*
X530855Y399166D01*
X530756Y399175D01*
X530658Y399188D01*
X530560Y399206D01*
X530462Y399226D01*
X530366Y399251D01*
X530270Y399279D01*
X530176Y399311D01*
X530083Y399346D01*
X529992Y399385D01*
X529902Y399428D01*
X529813Y399473D01*
X529727Y399523D01*
X529642Y399575D01*
X529560Y399631D01*
X529480Y399690D01*
X529402Y399751D01*
X529326Y399816D01*
X529253Y399884D01*
X529183Y399954D01*
X529115Y400027D01*
X529050Y400103D01*
X528989Y400181D01*
X528930Y400261D01*
X528874Y400343D01*
X528822Y400428D01*
X528773Y400514D01*
X528727Y400603D01*
X528684Y400693D01*
X528645Y400784D01*
X528610Y400877D01*
X528578Y400971D01*
X528550Y401067D01*
X528525Y401163D01*
X528505Y401261D01*
X528487Y401359D01*
X528474Y401457D01*
X528465Y401556D01*
X528459Y401655D01*
X528457Y401755D01*
X528458Y401754D02*
X528458Y404351D01*
X540142Y408716D02*
X540142Y412611D01*
X540140Y412710D01*
X540134Y412810D01*
X540125Y412909D01*
X540112Y413007D01*
X540095Y413105D01*
X540074Y413203D01*
X540049Y413299D01*
X540021Y413394D01*
X539989Y413488D01*
X539954Y413581D01*
X539915Y413673D01*
X539872Y413763D01*
X539827Y413851D01*
X539777Y413938D01*
X539725Y414022D01*
X539669Y414105D01*
X539611Y414185D01*
X539549Y414263D01*
X539484Y414338D01*
X539416Y414411D01*
X539346Y414481D01*
X539273Y414549D01*
X539198Y414614D01*
X539120Y414676D01*
X539040Y414734D01*
X538957Y414790D01*
X538873Y414842D01*
X538786Y414892D01*
X538698Y414937D01*
X538608Y414980D01*
X538516Y415019D01*
X538423Y415054D01*
X538329Y415086D01*
X538234Y415114D01*
X538138Y415139D01*
X538040Y415160D01*
X537942Y415177D01*
X537844Y415190D01*
X537745Y415199D01*
X537645Y415205D01*
X537546Y415207D01*
X536247Y415207D01*
X536148Y415205D01*
X536048Y415199D01*
X535949Y415190D01*
X535851Y415177D01*
X535753Y415160D01*
X535655Y415139D01*
X535559Y415114D01*
X535464Y415086D01*
X535370Y415054D01*
X535277Y415019D01*
X535185Y414980D01*
X535095Y414937D01*
X535007Y414892D01*
X534920Y414842D01*
X534836Y414790D01*
X534753Y414734D01*
X534673Y414676D01*
X534595Y414614D01*
X534520Y414549D01*
X534447Y414481D01*
X534377Y414411D01*
X534309Y414338D01*
X534244Y414263D01*
X534182Y414185D01*
X534124Y414105D01*
X534068Y414022D01*
X534016Y413938D01*
X533966Y413851D01*
X533921Y413763D01*
X533878Y413673D01*
X533839Y413581D01*
X533804Y413488D01*
X533772Y413394D01*
X533744Y413299D01*
X533719Y413203D01*
X533698Y413105D01*
X533681Y413007D01*
X533668Y412909D01*
X533659Y412810D01*
X533653Y412710D01*
X533651Y412611D01*
X533651Y408716D01*
X528458Y408716D01*
X528458Y415207D01*
X669389Y239458D02*
X671986Y239458D01*
X669389Y239458D02*
X669290Y239460D01*
X669190Y239466D01*
X669091Y239475D01*
X668993Y239488D01*
X668895Y239505D01*
X668797Y239526D01*
X668701Y239551D01*
X668606Y239579D01*
X668512Y239611D01*
X668419Y239646D01*
X668327Y239685D01*
X668237Y239728D01*
X668149Y239773D01*
X668062Y239823D01*
X667978Y239875D01*
X667895Y239931D01*
X667815Y239989D01*
X667737Y240051D01*
X667662Y240116D01*
X667589Y240184D01*
X667519Y240254D01*
X667451Y240327D01*
X667386Y240402D01*
X667324Y240480D01*
X667266Y240560D01*
X667210Y240643D01*
X667158Y240727D01*
X667108Y240814D01*
X667063Y240902D01*
X667020Y240992D01*
X666981Y241084D01*
X666946Y241177D01*
X666914Y241271D01*
X666886Y241366D01*
X666861Y241462D01*
X666840Y241560D01*
X666823Y241658D01*
X666810Y241756D01*
X666801Y241855D01*
X666795Y241955D01*
X666793Y242054D01*
X666793Y248546D01*
X666795Y248645D01*
X666801Y248745D01*
X666810Y248844D01*
X666823Y248942D01*
X666840Y249040D01*
X666861Y249138D01*
X666886Y249234D01*
X666914Y249329D01*
X666946Y249423D01*
X666981Y249516D01*
X667020Y249608D01*
X667063Y249698D01*
X667108Y249786D01*
X667158Y249873D01*
X667210Y249957D01*
X667266Y250040D01*
X667324Y250120D01*
X667386Y250198D01*
X667451Y250273D01*
X667519Y250346D01*
X667589Y250416D01*
X667662Y250484D01*
X667737Y250549D01*
X667815Y250611D01*
X667895Y250669D01*
X667978Y250725D01*
X668062Y250777D01*
X668149Y250827D01*
X668237Y250872D01*
X668327Y250915D01*
X668419Y250954D01*
X668511Y250989D01*
X668606Y251021D01*
X668701Y251049D01*
X668797Y251074D01*
X668895Y251095D01*
X668993Y251112D01*
X669091Y251125D01*
X669190Y251134D01*
X669290Y251140D01*
X669389Y251142D01*
X671986Y251142D01*
X676351Y245949D02*
X680246Y245949D01*
X680345Y245947D01*
X680445Y245941D01*
X680544Y245932D01*
X680642Y245919D01*
X680740Y245902D01*
X680838Y245881D01*
X680934Y245856D01*
X681029Y245828D01*
X681123Y245796D01*
X681216Y245761D01*
X681308Y245722D01*
X681398Y245679D01*
X681486Y245634D01*
X681573Y245584D01*
X681657Y245532D01*
X681740Y245476D01*
X681820Y245418D01*
X681898Y245356D01*
X681973Y245291D01*
X682046Y245223D01*
X682116Y245153D01*
X682184Y245080D01*
X682249Y245005D01*
X682311Y244927D01*
X682369Y244847D01*
X682425Y244764D01*
X682477Y244680D01*
X682527Y244593D01*
X682572Y244505D01*
X682615Y244415D01*
X682654Y244323D01*
X682689Y244230D01*
X682721Y244136D01*
X682749Y244041D01*
X682774Y243945D01*
X682795Y243847D01*
X682812Y243749D01*
X682825Y243651D01*
X682834Y243552D01*
X682840Y243452D01*
X682842Y243353D01*
X682842Y242704D01*
X682840Y242591D01*
X682834Y242478D01*
X682824Y242365D01*
X682810Y242252D01*
X682793Y242140D01*
X682771Y242029D01*
X682746Y241919D01*
X682716Y241809D01*
X682683Y241701D01*
X682646Y241594D01*
X682606Y241488D01*
X682561Y241384D01*
X682513Y241281D01*
X682462Y241180D01*
X682407Y241081D01*
X682349Y240984D01*
X682287Y240889D01*
X682222Y240796D01*
X682154Y240706D01*
X682083Y240618D01*
X682008Y240532D01*
X681931Y240449D01*
X681851Y240369D01*
X681768Y240292D01*
X681682Y240217D01*
X681594Y240146D01*
X681504Y240078D01*
X681411Y240013D01*
X681316Y239951D01*
X681219Y239893D01*
X681120Y239838D01*
X681019Y239787D01*
X680916Y239739D01*
X680812Y239694D01*
X680706Y239654D01*
X680599Y239617D01*
X680491Y239584D01*
X680381Y239554D01*
X680271Y239529D01*
X680160Y239507D01*
X680048Y239490D01*
X679935Y239476D01*
X679822Y239466D01*
X679709Y239460D01*
X679596Y239458D01*
X679483Y239460D01*
X679370Y239466D01*
X679257Y239476D01*
X679144Y239490D01*
X679032Y239507D01*
X678921Y239529D01*
X678811Y239554D01*
X678701Y239584D01*
X678593Y239617D01*
X678486Y239654D01*
X678380Y239694D01*
X678276Y239739D01*
X678173Y239787D01*
X678072Y239838D01*
X677973Y239893D01*
X677876Y239951D01*
X677781Y240013D01*
X677688Y240078D01*
X677598Y240146D01*
X677510Y240217D01*
X677424Y240292D01*
X677341Y240369D01*
X677261Y240449D01*
X677184Y240532D01*
X677109Y240618D01*
X677038Y240706D01*
X676970Y240796D01*
X676905Y240889D01*
X676843Y240984D01*
X676785Y241081D01*
X676730Y241180D01*
X676679Y241281D01*
X676631Y241384D01*
X676586Y241488D01*
X676546Y241594D01*
X676509Y241701D01*
X676476Y241809D01*
X676446Y241919D01*
X676421Y242029D01*
X676399Y242140D01*
X676382Y242252D01*
X676368Y242365D01*
X676358Y242478D01*
X676352Y242591D01*
X676350Y242704D01*
X676351Y242704D02*
X676351Y245949D01*
X676353Y246092D01*
X676359Y246235D01*
X676369Y246378D01*
X676383Y246520D01*
X676400Y246662D01*
X676422Y246804D01*
X676447Y246945D01*
X676477Y247085D01*
X676510Y247224D01*
X676547Y247362D01*
X676588Y247499D01*
X676632Y247635D01*
X676681Y247770D01*
X676733Y247903D01*
X676788Y248035D01*
X676848Y248165D01*
X676911Y248294D01*
X676977Y248421D01*
X677047Y248545D01*
X677120Y248668D01*
X677197Y248789D01*
X677277Y248908D01*
X677360Y249024D01*
X677446Y249139D01*
X677535Y249250D01*
X677628Y249360D01*
X677723Y249466D01*
X677822Y249570D01*
X677923Y249671D01*
X678027Y249770D01*
X678133Y249865D01*
X678243Y249958D01*
X678354Y250047D01*
X678469Y250133D01*
X678585Y250216D01*
X678704Y250296D01*
X678825Y250373D01*
X678947Y250446D01*
X679072Y250516D01*
X679199Y250582D01*
X679328Y250645D01*
X679458Y250705D01*
X679590Y250760D01*
X679723Y250812D01*
X679858Y250861D01*
X679994Y250905D01*
X680131Y250946D01*
X680269Y250983D01*
X680408Y251016D01*
X680548Y251046D01*
X680689Y251071D01*
X680831Y251093D01*
X680973Y251110D01*
X681115Y251124D01*
X681258Y251134D01*
X681401Y251140D01*
X681544Y251142D01*
X671986Y268458D02*
X669389Y268458D01*
X669290Y268460D01*
X669190Y268466D01*
X669091Y268475D01*
X668993Y268488D01*
X668895Y268505D01*
X668797Y268526D01*
X668701Y268551D01*
X668606Y268579D01*
X668512Y268611D01*
X668419Y268646D01*
X668327Y268685D01*
X668237Y268728D01*
X668149Y268773D01*
X668062Y268823D01*
X667978Y268875D01*
X667895Y268931D01*
X667815Y268989D01*
X667737Y269051D01*
X667662Y269116D01*
X667589Y269184D01*
X667519Y269254D01*
X667451Y269327D01*
X667386Y269402D01*
X667324Y269480D01*
X667266Y269560D01*
X667210Y269643D01*
X667158Y269727D01*
X667108Y269814D01*
X667063Y269902D01*
X667020Y269992D01*
X666981Y270084D01*
X666946Y270177D01*
X666914Y270271D01*
X666886Y270366D01*
X666861Y270462D01*
X666840Y270560D01*
X666823Y270658D01*
X666810Y270756D01*
X666801Y270855D01*
X666795Y270955D01*
X666793Y271054D01*
X666793Y277546D01*
X666795Y277645D01*
X666801Y277745D01*
X666810Y277844D01*
X666823Y277942D01*
X666840Y278040D01*
X666861Y278138D01*
X666886Y278234D01*
X666914Y278329D01*
X666946Y278423D01*
X666981Y278516D01*
X667020Y278608D01*
X667063Y278698D01*
X667108Y278786D01*
X667158Y278873D01*
X667210Y278957D01*
X667266Y279040D01*
X667324Y279120D01*
X667386Y279198D01*
X667451Y279273D01*
X667519Y279346D01*
X667589Y279416D01*
X667662Y279484D01*
X667737Y279549D01*
X667815Y279611D01*
X667895Y279669D01*
X667978Y279725D01*
X668062Y279777D01*
X668149Y279827D01*
X668237Y279872D01*
X668327Y279915D01*
X668419Y279954D01*
X668511Y279989D01*
X668606Y280021D01*
X668701Y280049D01*
X668797Y280074D01*
X668895Y280095D01*
X668993Y280112D01*
X669091Y280125D01*
X669190Y280134D01*
X669290Y280140D01*
X669389Y280142D01*
X671986Y280142D01*
X676351Y280142D02*
X676351Y278844D01*
X676351Y280142D02*
X682842Y280142D01*
X679596Y268458D01*
D12*
X553758Y20219D02*
X551148Y18131D01*
X553758Y20219D02*
X553758Y10821D01*
X551148Y10821D02*
X556369Y10821D01*
D11*
X192142Y91158D02*
X180458Y91158D01*
X180458Y94404D01*
X180460Y94517D01*
X180466Y94630D01*
X180476Y94743D01*
X180490Y94856D01*
X180507Y94968D01*
X180529Y95079D01*
X180554Y95189D01*
X180584Y95299D01*
X180617Y95407D01*
X180654Y95514D01*
X180694Y95620D01*
X180739Y95724D01*
X180787Y95827D01*
X180838Y95928D01*
X180893Y96027D01*
X180951Y96124D01*
X181013Y96219D01*
X181078Y96312D01*
X181146Y96402D01*
X181217Y96490D01*
X181292Y96576D01*
X181369Y96659D01*
X181449Y96739D01*
X181532Y96816D01*
X181618Y96891D01*
X181706Y96962D01*
X181796Y97030D01*
X181889Y97095D01*
X181984Y97157D01*
X182081Y97215D01*
X182180Y97270D01*
X182281Y97321D01*
X182384Y97369D01*
X182488Y97414D01*
X182594Y97454D01*
X182701Y97491D01*
X182809Y97524D01*
X182919Y97554D01*
X183029Y97579D01*
X183140Y97601D01*
X183252Y97618D01*
X183365Y97632D01*
X183478Y97642D01*
X183591Y97648D01*
X183704Y97650D01*
X183817Y97648D01*
X183930Y97642D01*
X184043Y97632D01*
X184156Y97618D01*
X184268Y97601D01*
X184379Y97579D01*
X184489Y97554D01*
X184599Y97524D01*
X184707Y97491D01*
X184814Y97454D01*
X184920Y97414D01*
X185024Y97369D01*
X185127Y97321D01*
X185228Y97270D01*
X185327Y97215D01*
X185424Y97157D01*
X185519Y97095D01*
X185612Y97030D01*
X185702Y96962D01*
X185790Y96891D01*
X185876Y96816D01*
X185959Y96739D01*
X186039Y96659D01*
X186116Y96576D01*
X186191Y96490D01*
X186262Y96402D01*
X186330Y96312D01*
X186395Y96219D01*
X186457Y96124D01*
X186515Y96027D01*
X186570Y95928D01*
X186621Y95827D01*
X186669Y95724D01*
X186714Y95620D01*
X186754Y95514D01*
X186791Y95407D01*
X186824Y95299D01*
X186854Y95189D01*
X186879Y95079D01*
X186901Y94968D01*
X186918Y94856D01*
X186932Y94743D01*
X186942Y94630D01*
X186948Y94517D01*
X186950Y94404D01*
X186949Y94404D02*
X186949Y91158D01*
X186949Y95053D02*
X192142Y97649D01*
X183054Y102514D02*
X180458Y105760D01*
X192142Y105760D01*
X192142Y109005D02*
X192142Y102514D01*
X191142Y188158D02*
X179458Y188158D01*
X179458Y191404D01*
X179460Y191517D01*
X179466Y191630D01*
X179476Y191743D01*
X179490Y191856D01*
X179507Y191968D01*
X179529Y192079D01*
X179554Y192189D01*
X179584Y192299D01*
X179617Y192407D01*
X179654Y192514D01*
X179694Y192620D01*
X179739Y192724D01*
X179787Y192827D01*
X179838Y192928D01*
X179893Y193027D01*
X179951Y193124D01*
X180013Y193219D01*
X180078Y193312D01*
X180146Y193402D01*
X180217Y193490D01*
X180292Y193576D01*
X180369Y193659D01*
X180449Y193739D01*
X180532Y193816D01*
X180618Y193891D01*
X180706Y193962D01*
X180796Y194030D01*
X180889Y194095D01*
X180984Y194157D01*
X181081Y194215D01*
X181180Y194270D01*
X181281Y194321D01*
X181384Y194369D01*
X181488Y194414D01*
X181594Y194454D01*
X181701Y194491D01*
X181809Y194524D01*
X181919Y194554D01*
X182029Y194579D01*
X182140Y194601D01*
X182252Y194618D01*
X182365Y194632D01*
X182478Y194642D01*
X182591Y194648D01*
X182704Y194650D01*
X182817Y194648D01*
X182930Y194642D01*
X183043Y194632D01*
X183156Y194618D01*
X183268Y194601D01*
X183379Y194579D01*
X183489Y194554D01*
X183599Y194524D01*
X183707Y194491D01*
X183814Y194454D01*
X183920Y194414D01*
X184024Y194369D01*
X184127Y194321D01*
X184228Y194270D01*
X184327Y194215D01*
X184424Y194157D01*
X184519Y194095D01*
X184612Y194030D01*
X184702Y193962D01*
X184790Y193891D01*
X184876Y193816D01*
X184959Y193739D01*
X185039Y193659D01*
X185116Y193576D01*
X185191Y193490D01*
X185262Y193402D01*
X185330Y193312D01*
X185395Y193219D01*
X185457Y193124D01*
X185515Y193027D01*
X185570Y192928D01*
X185621Y192827D01*
X185669Y192724D01*
X185714Y192620D01*
X185754Y192514D01*
X185791Y192407D01*
X185824Y192299D01*
X185854Y192189D01*
X185879Y192079D01*
X185901Y191968D01*
X185918Y191856D01*
X185932Y191743D01*
X185942Y191630D01*
X185948Y191517D01*
X185950Y191404D01*
X185949Y191404D02*
X185949Y188158D01*
X185949Y192053D02*
X191142Y194649D01*
X182054Y199514D02*
X179458Y202760D01*
X191142Y202760D01*
X191142Y206005D02*
X191142Y199514D01*
X182054Y210944D02*
X179458Y214190D01*
X191142Y214190D01*
X191142Y217435D02*
X191142Y210944D01*
X165642Y221658D02*
X153958Y221658D01*
X153958Y224904D01*
X153960Y225017D01*
X153966Y225130D01*
X153976Y225243D01*
X153990Y225356D01*
X154007Y225468D01*
X154029Y225579D01*
X154054Y225689D01*
X154084Y225799D01*
X154117Y225907D01*
X154154Y226014D01*
X154194Y226120D01*
X154239Y226224D01*
X154287Y226327D01*
X154338Y226428D01*
X154393Y226527D01*
X154451Y226624D01*
X154513Y226719D01*
X154578Y226812D01*
X154646Y226902D01*
X154717Y226990D01*
X154792Y227076D01*
X154869Y227159D01*
X154949Y227239D01*
X155032Y227316D01*
X155118Y227391D01*
X155206Y227462D01*
X155296Y227530D01*
X155389Y227595D01*
X155484Y227657D01*
X155581Y227715D01*
X155680Y227770D01*
X155781Y227821D01*
X155884Y227869D01*
X155988Y227914D01*
X156094Y227954D01*
X156201Y227991D01*
X156309Y228024D01*
X156419Y228054D01*
X156529Y228079D01*
X156640Y228101D01*
X156752Y228118D01*
X156865Y228132D01*
X156978Y228142D01*
X157091Y228148D01*
X157204Y228150D01*
X157317Y228148D01*
X157430Y228142D01*
X157543Y228132D01*
X157656Y228118D01*
X157768Y228101D01*
X157879Y228079D01*
X157989Y228054D01*
X158099Y228024D01*
X158207Y227991D01*
X158314Y227954D01*
X158420Y227914D01*
X158524Y227869D01*
X158627Y227821D01*
X158728Y227770D01*
X158827Y227715D01*
X158924Y227657D01*
X159019Y227595D01*
X159112Y227530D01*
X159202Y227462D01*
X159290Y227391D01*
X159376Y227316D01*
X159459Y227239D01*
X159539Y227159D01*
X159616Y227076D01*
X159691Y226990D01*
X159762Y226902D01*
X159830Y226812D01*
X159895Y226719D01*
X159957Y226624D01*
X160015Y226527D01*
X160070Y226428D01*
X160121Y226327D01*
X160169Y226224D01*
X160214Y226120D01*
X160254Y226014D01*
X160291Y225907D01*
X160324Y225799D01*
X160354Y225689D01*
X160379Y225579D01*
X160401Y225468D01*
X160418Y225356D01*
X160432Y225243D01*
X160442Y225130D01*
X160448Y225017D01*
X160450Y224904D01*
X160449Y224904D02*
X160449Y221658D01*
X160449Y225553D02*
X165642Y228149D01*
X156554Y233014D02*
X153958Y236260D01*
X165642Y236260D01*
X165642Y239505D02*
X165642Y233014D01*
X165642Y244444D02*
X165642Y248339D01*
X165640Y248438D01*
X165634Y248538D01*
X165625Y248637D01*
X165612Y248735D01*
X165595Y248833D01*
X165574Y248931D01*
X165549Y249027D01*
X165521Y249122D01*
X165489Y249216D01*
X165454Y249309D01*
X165415Y249401D01*
X165372Y249491D01*
X165327Y249579D01*
X165277Y249666D01*
X165225Y249750D01*
X165169Y249833D01*
X165111Y249913D01*
X165049Y249991D01*
X164984Y250066D01*
X164916Y250139D01*
X164846Y250209D01*
X164773Y250277D01*
X164698Y250342D01*
X164620Y250404D01*
X164540Y250462D01*
X164457Y250518D01*
X164373Y250570D01*
X164286Y250620D01*
X164198Y250665D01*
X164108Y250708D01*
X164016Y250747D01*
X163923Y250782D01*
X163829Y250814D01*
X163734Y250842D01*
X163638Y250867D01*
X163540Y250888D01*
X163442Y250905D01*
X163344Y250918D01*
X163245Y250927D01*
X163145Y250933D01*
X163046Y250935D01*
X161747Y250935D01*
X161648Y250933D01*
X161548Y250927D01*
X161449Y250918D01*
X161351Y250905D01*
X161253Y250888D01*
X161155Y250867D01*
X161059Y250842D01*
X160964Y250814D01*
X160870Y250782D01*
X160777Y250747D01*
X160685Y250708D01*
X160595Y250665D01*
X160507Y250620D01*
X160420Y250570D01*
X160336Y250518D01*
X160253Y250462D01*
X160173Y250404D01*
X160095Y250342D01*
X160020Y250277D01*
X159947Y250209D01*
X159877Y250139D01*
X159809Y250066D01*
X159744Y249991D01*
X159682Y249913D01*
X159624Y249833D01*
X159568Y249750D01*
X159516Y249666D01*
X159466Y249579D01*
X159421Y249491D01*
X159378Y249401D01*
X159339Y249309D01*
X159304Y249216D01*
X159272Y249122D01*
X159244Y249027D01*
X159219Y248931D01*
X159198Y248833D01*
X159181Y248735D01*
X159168Y248637D01*
X159159Y248538D01*
X159153Y248438D01*
X159151Y248339D01*
X159151Y244444D01*
X153958Y244444D01*
X153958Y250935D01*
X188858Y359565D02*
X200542Y359565D01*
X188858Y359565D02*
X188858Y362810D01*
X188860Y362923D01*
X188866Y363036D01*
X188876Y363149D01*
X188890Y363262D01*
X188907Y363374D01*
X188929Y363485D01*
X188954Y363595D01*
X188984Y363705D01*
X189017Y363813D01*
X189054Y363920D01*
X189094Y364026D01*
X189139Y364130D01*
X189187Y364233D01*
X189238Y364334D01*
X189293Y364433D01*
X189351Y364530D01*
X189413Y364625D01*
X189478Y364718D01*
X189546Y364808D01*
X189617Y364896D01*
X189692Y364982D01*
X189769Y365065D01*
X189849Y365145D01*
X189932Y365222D01*
X190018Y365297D01*
X190106Y365368D01*
X190196Y365436D01*
X190289Y365501D01*
X190384Y365563D01*
X190481Y365621D01*
X190580Y365676D01*
X190681Y365727D01*
X190784Y365775D01*
X190888Y365820D01*
X190994Y365860D01*
X191101Y365897D01*
X191209Y365930D01*
X191319Y365960D01*
X191429Y365985D01*
X191540Y366007D01*
X191652Y366024D01*
X191765Y366038D01*
X191878Y366048D01*
X191991Y366054D01*
X192104Y366056D01*
X192217Y366054D01*
X192330Y366048D01*
X192443Y366038D01*
X192556Y366024D01*
X192668Y366007D01*
X192779Y365985D01*
X192889Y365960D01*
X192999Y365930D01*
X193107Y365897D01*
X193214Y365860D01*
X193320Y365820D01*
X193424Y365775D01*
X193527Y365727D01*
X193628Y365676D01*
X193727Y365621D01*
X193824Y365563D01*
X193919Y365501D01*
X194012Y365436D01*
X194102Y365368D01*
X194190Y365297D01*
X194276Y365222D01*
X194359Y365145D01*
X194439Y365065D01*
X194516Y364982D01*
X194591Y364896D01*
X194662Y364808D01*
X194730Y364718D01*
X194795Y364625D01*
X194857Y364530D01*
X194915Y364433D01*
X194970Y364334D01*
X195021Y364233D01*
X195069Y364130D01*
X195114Y364026D01*
X195154Y363920D01*
X195191Y363813D01*
X195224Y363705D01*
X195254Y363595D01*
X195279Y363485D01*
X195301Y363374D01*
X195318Y363262D01*
X195332Y363149D01*
X195342Y363036D01*
X195348Y362923D01*
X195350Y362810D01*
X195349Y362810D02*
X195349Y359565D01*
X195349Y363459D02*
X200542Y366056D01*
X191454Y370921D02*
X188858Y374166D01*
X200542Y374166D01*
X200542Y370921D02*
X200542Y377412D01*
X194051Y382351D02*
X194051Y386246D01*
X194053Y386345D01*
X194059Y386445D01*
X194068Y386544D01*
X194081Y386642D01*
X194098Y386740D01*
X194119Y386838D01*
X194144Y386934D01*
X194172Y387029D01*
X194204Y387123D01*
X194239Y387216D01*
X194278Y387308D01*
X194321Y387398D01*
X194366Y387486D01*
X194416Y387573D01*
X194468Y387657D01*
X194524Y387740D01*
X194582Y387820D01*
X194644Y387898D01*
X194709Y387973D01*
X194777Y388046D01*
X194847Y388116D01*
X194920Y388184D01*
X194995Y388249D01*
X195073Y388311D01*
X195153Y388369D01*
X195236Y388425D01*
X195320Y388477D01*
X195407Y388527D01*
X195495Y388572D01*
X195585Y388615D01*
X195677Y388654D01*
X195770Y388689D01*
X195864Y388721D01*
X195959Y388749D01*
X196055Y388774D01*
X196153Y388795D01*
X196251Y388812D01*
X196349Y388825D01*
X196448Y388834D01*
X196548Y388840D01*
X196647Y388842D01*
X197296Y388842D01*
X197409Y388840D01*
X197522Y388834D01*
X197635Y388824D01*
X197748Y388810D01*
X197860Y388793D01*
X197971Y388771D01*
X198081Y388746D01*
X198191Y388716D01*
X198299Y388683D01*
X198406Y388646D01*
X198512Y388606D01*
X198616Y388561D01*
X198719Y388513D01*
X198820Y388462D01*
X198919Y388407D01*
X199016Y388349D01*
X199111Y388287D01*
X199204Y388222D01*
X199294Y388154D01*
X199382Y388083D01*
X199468Y388008D01*
X199551Y387931D01*
X199631Y387851D01*
X199708Y387768D01*
X199783Y387682D01*
X199854Y387594D01*
X199922Y387504D01*
X199987Y387411D01*
X200049Y387316D01*
X200107Y387219D01*
X200162Y387120D01*
X200213Y387019D01*
X200261Y386916D01*
X200306Y386812D01*
X200346Y386706D01*
X200383Y386599D01*
X200416Y386491D01*
X200446Y386381D01*
X200471Y386271D01*
X200493Y386160D01*
X200510Y386048D01*
X200524Y385935D01*
X200534Y385822D01*
X200540Y385709D01*
X200542Y385596D01*
X200540Y385483D01*
X200534Y385370D01*
X200524Y385257D01*
X200510Y385144D01*
X200493Y385032D01*
X200471Y384921D01*
X200446Y384811D01*
X200416Y384701D01*
X200383Y384593D01*
X200346Y384486D01*
X200306Y384380D01*
X200261Y384276D01*
X200213Y384173D01*
X200162Y384072D01*
X200107Y383973D01*
X200049Y383876D01*
X199987Y383781D01*
X199922Y383688D01*
X199854Y383598D01*
X199783Y383510D01*
X199708Y383424D01*
X199631Y383341D01*
X199551Y383261D01*
X199468Y383184D01*
X199382Y383109D01*
X199294Y383038D01*
X199204Y382970D01*
X199111Y382905D01*
X199016Y382843D01*
X198919Y382785D01*
X198820Y382730D01*
X198719Y382679D01*
X198616Y382631D01*
X198512Y382586D01*
X198406Y382546D01*
X198299Y382509D01*
X198191Y382476D01*
X198081Y382446D01*
X197971Y382421D01*
X197860Y382399D01*
X197748Y382382D01*
X197635Y382368D01*
X197522Y382358D01*
X197409Y382352D01*
X197296Y382350D01*
X197296Y382351D02*
X194051Y382351D01*
X193908Y382353D01*
X193765Y382359D01*
X193622Y382369D01*
X193480Y382383D01*
X193338Y382400D01*
X193196Y382422D01*
X193055Y382447D01*
X192915Y382477D01*
X192776Y382510D01*
X192638Y382547D01*
X192501Y382588D01*
X192365Y382632D01*
X192230Y382681D01*
X192097Y382733D01*
X191965Y382788D01*
X191835Y382848D01*
X191706Y382911D01*
X191579Y382977D01*
X191455Y383047D01*
X191332Y383120D01*
X191211Y383197D01*
X191092Y383276D01*
X190976Y383360D01*
X190861Y383446D01*
X190750Y383535D01*
X190641Y383628D01*
X190534Y383723D01*
X190430Y383822D01*
X190329Y383923D01*
X190230Y384027D01*
X190135Y384133D01*
X190042Y384243D01*
X189953Y384354D01*
X189867Y384468D01*
X189784Y384585D01*
X189704Y384704D01*
X189627Y384825D01*
X189554Y384947D01*
X189484Y385072D01*
X189418Y385199D01*
X189355Y385328D01*
X189295Y385458D01*
X189240Y385590D01*
X189188Y385723D01*
X189139Y385858D01*
X189095Y385994D01*
X189054Y386131D01*
X189017Y386269D01*
X188984Y386408D01*
X188954Y386548D01*
X188929Y386689D01*
X188907Y386831D01*
X188890Y386973D01*
X188876Y387115D01*
X188866Y387258D01*
X188860Y387401D01*
X188858Y387544D01*
X211858Y359565D02*
X223542Y359565D01*
X211858Y359565D02*
X211858Y362810D01*
X211860Y362923D01*
X211866Y363036D01*
X211876Y363149D01*
X211890Y363262D01*
X211907Y363374D01*
X211929Y363485D01*
X211954Y363595D01*
X211984Y363705D01*
X212017Y363813D01*
X212054Y363920D01*
X212094Y364026D01*
X212139Y364130D01*
X212187Y364233D01*
X212238Y364334D01*
X212293Y364433D01*
X212351Y364530D01*
X212413Y364625D01*
X212478Y364718D01*
X212546Y364808D01*
X212617Y364896D01*
X212692Y364982D01*
X212769Y365065D01*
X212849Y365145D01*
X212932Y365222D01*
X213018Y365297D01*
X213106Y365368D01*
X213196Y365436D01*
X213289Y365501D01*
X213384Y365563D01*
X213481Y365621D01*
X213580Y365676D01*
X213681Y365727D01*
X213784Y365775D01*
X213888Y365820D01*
X213994Y365860D01*
X214101Y365897D01*
X214209Y365930D01*
X214319Y365960D01*
X214429Y365985D01*
X214540Y366007D01*
X214652Y366024D01*
X214765Y366038D01*
X214878Y366048D01*
X214991Y366054D01*
X215104Y366056D01*
X215217Y366054D01*
X215330Y366048D01*
X215443Y366038D01*
X215556Y366024D01*
X215668Y366007D01*
X215779Y365985D01*
X215889Y365960D01*
X215999Y365930D01*
X216107Y365897D01*
X216214Y365860D01*
X216320Y365820D01*
X216424Y365775D01*
X216527Y365727D01*
X216628Y365676D01*
X216727Y365621D01*
X216824Y365563D01*
X216919Y365501D01*
X217012Y365436D01*
X217102Y365368D01*
X217190Y365297D01*
X217276Y365222D01*
X217359Y365145D01*
X217439Y365065D01*
X217516Y364982D01*
X217591Y364896D01*
X217662Y364808D01*
X217730Y364718D01*
X217795Y364625D01*
X217857Y364530D01*
X217915Y364433D01*
X217970Y364334D01*
X218021Y364233D01*
X218069Y364130D01*
X218114Y364026D01*
X218154Y363920D01*
X218191Y363813D01*
X218224Y363705D01*
X218254Y363595D01*
X218279Y363485D01*
X218301Y363374D01*
X218318Y363262D01*
X218332Y363149D01*
X218342Y363036D01*
X218348Y362923D01*
X218350Y362810D01*
X218349Y362810D02*
X218349Y359565D01*
X218349Y363459D02*
X223542Y366056D01*
X214454Y370921D02*
X211858Y374166D01*
X223542Y374166D01*
X223542Y370921D02*
X223542Y377412D01*
X213156Y382351D02*
X211858Y382351D01*
X211858Y388842D01*
X223542Y385596D01*
X210995Y263142D02*
X210995Y251458D01*
X210995Y263142D02*
X214240Y263142D01*
X214353Y263140D01*
X214466Y263134D01*
X214579Y263124D01*
X214692Y263110D01*
X214804Y263093D01*
X214915Y263071D01*
X215025Y263046D01*
X215135Y263016D01*
X215243Y262983D01*
X215350Y262946D01*
X215456Y262906D01*
X215560Y262861D01*
X215663Y262813D01*
X215764Y262762D01*
X215863Y262707D01*
X215960Y262649D01*
X216055Y262587D01*
X216148Y262522D01*
X216238Y262454D01*
X216326Y262383D01*
X216412Y262308D01*
X216495Y262231D01*
X216575Y262151D01*
X216652Y262068D01*
X216727Y261982D01*
X216798Y261894D01*
X216866Y261804D01*
X216931Y261711D01*
X216993Y261616D01*
X217051Y261519D01*
X217106Y261420D01*
X217157Y261319D01*
X217205Y261216D01*
X217250Y261112D01*
X217290Y261006D01*
X217327Y260899D01*
X217360Y260791D01*
X217390Y260681D01*
X217415Y260571D01*
X217437Y260460D01*
X217454Y260348D01*
X217468Y260235D01*
X217478Y260122D01*
X217484Y260009D01*
X217486Y259896D01*
X217484Y259783D01*
X217478Y259670D01*
X217468Y259557D01*
X217454Y259444D01*
X217437Y259332D01*
X217415Y259221D01*
X217390Y259111D01*
X217360Y259001D01*
X217327Y258893D01*
X217290Y258786D01*
X217250Y258680D01*
X217205Y258576D01*
X217157Y258473D01*
X217106Y258372D01*
X217051Y258273D01*
X216993Y258176D01*
X216931Y258081D01*
X216866Y257988D01*
X216798Y257898D01*
X216727Y257810D01*
X216652Y257724D01*
X216575Y257641D01*
X216495Y257561D01*
X216412Y257484D01*
X216326Y257409D01*
X216238Y257338D01*
X216148Y257270D01*
X216055Y257205D01*
X215960Y257143D01*
X215863Y257085D01*
X215764Y257030D01*
X215663Y256979D01*
X215560Y256931D01*
X215456Y256886D01*
X215350Y256846D01*
X215243Y256809D01*
X215135Y256776D01*
X215025Y256746D01*
X214915Y256721D01*
X214804Y256699D01*
X214692Y256682D01*
X214579Y256668D01*
X214466Y256658D01*
X214353Y256652D01*
X214240Y256650D01*
X214240Y256651D02*
X210995Y256651D01*
X214889Y256651D02*
X217486Y251458D01*
X222351Y251458D02*
X226246Y251458D01*
X226345Y251460D01*
X226445Y251466D01*
X226544Y251475D01*
X226642Y251488D01*
X226740Y251505D01*
X226838Y251526D01*
X226934Y251551D01*
X227029Y251579D01*
X227123Y251611D01*
X227216Y251646D01*
X227308Y251685D01*
X227398Y251728D01*
X227486Y251773D01*
X227573Y251823D01*
X227657Y251875D01*
X227740Y251931D01*
X227820Y251989D01*
X227898Y252051D01*
X227973Y252116D01*
X228046Y252184D01*
X228116Y252254D01*
X228184Y252327D01*
X228249Y252402D01*
X228311Y252480D01*
X228369Y252560D01*
X228425Y252643D01*
X228477Y252727D01*
X228527Y252814D01*
X228572Y252902D01*
X228615Y252992D01*
X228654Y253084D01*
X228689Y253177D01*
X228721Y253271D01*
X228749Y253366D01*
X228774Y253462D01*
X228795Y253560D01*
X228812Y253658D01*
X228825Y253756D01*
X228834Y253855D01*
X228840Y253955D01*
X228842Y254054D01*
X228842Y255353D01*
X228840Y255452D01*
X228834Y255552D01*
X228825Y255651D01*
X228812Y255749D01*
X228795Y255847D01*
X228774Y255945D01*
X228749Y256041D01*
X228721Y256136D01*
X228689Y256230D01*
X228654Y256323D01*
X228615Y256415D01*
X228572Y256505D01*
X228527Y256593D01*
X228477Y256680D01*
X228425Y256764D01*
X228369Y256847D01*
X228311Y256927D01*
X228249Y257005D01*
X228184Y257080D01*
X228116Y257153D01*
X228046Y257223D01*
X227973Y257291D01*
X227898Y257356D01*
X227820Y257418D01*
X227740Y257476D01*
X227657Y257532D01*
X227573Y257584D01*
X227486Y257634D01*
X227398Y257679D01*
X227308Y257722D01*
X227216Y257761D01*
X227123Y257796D01*
X227029Y257828D01*
X226934Y257856D01*
X226838Y257881D01*
X226740Y257902D01*
X226642Y257919D01*
X226544Y257932D01*
X226445Y257941D01*
X226345Y257947D01*
X226246Y257949D01*
X222351Y257949D01*
X222351Y263142D01*
X228842Y263142D01*
X171158Y183542D02*
X171158Y171858D01*
X171158Y183542D02*
X174404Y183542D01*
X174517Y183540D01*
X174630Y183534D01*
X174743Y183524D01*
X174856Y183510D01*
X174968Y183493D01*
X175079Y183471D01*
X175189Y183446D01*
X175299Y183416D01*
X175407Y183383D01*
X175514Y183346D01*
X175620Y183306D01*
X175724Y183261D01*
X175827Y183213D01*
X175928Y183162D01*
X176027Y183107D01*
X176124Y183049D01*
X176219Y182987D01*
X176312Y182922D01*
X176402Y182854D01*
X176490Y182783D01*
X176576Y182708D01*
X176659Y182631D01*
X176739Y182551D01*
X176816Y182468D01*
X176891Y182382D01*
X176962Y182294D01*
X177030Y182204D01*
X177095Y182111D01*
X177157Y182016D01*
X177215Y181919D01*
X177270Y181820D01*
X177321Y181719D01*
X177369Y181616D01*
X177414Y181512D01*
X177454Y181406D01*
X177491Y181299D01*
X177524Y181191D01*
X177554Y181081D01*
X177579Y180971D01*
X177601Y180860D01*
X177618Y180748D01*
X177632Y180635D01*
X177642Y180522D01*
X177648Y180409D01*
X177650Y180296D01*
X177648Y180183D01*
X177642Y180070D01*
X177632Y179957D01*
X177618Y179844D01*
X177601Y179732D01*
X177579Y179621D01*
X177554Y179511D01*
X177524Y179401D01*
X177491Y179293D01*
X177454Y179186D01*
X177414Y179080D01*
X177369Y178976D01*
X177321Y178873D01*
X177270Y178772D01*
X177215Y178673D01*
X177157Y178576D01*
X177095Y178481D01*
X177030Y178388D01*
X176962Y178298D01*
X176891Y178210D01*
X176816Y178124D01*
X176739Y178041D01*
X176659Y177961D01*
X176576Y177884D01*
X176490Y177809D01*
X176402Y177738D01*
X176312Y177670D01*
X176219Y177605D01*
X176124Y177543D01*
X176027Y177485D01*
X175928Y177430D01*
X175827Y177379D01*
X175724Y177331D01*
X175620Y177286D01*
X175514Y177246D01*
X175407Y177209D01*
X175299Y177176D01*
X175189Y177146D01*
X175079Y177121D01*
X174968Y177099D01*
X174856Y177082D01*
X174743Y177068D01*
X174630Y177058D01*
X174517Y177052D01*
X174404Y177050D01*
X174404Y177051D02*
X171158Y177051D01*
X175053Y177051D02*
X177649Y171858D01*
X182514Y175104D02*
X182516Y175217D01*
X182522Y175330D01*
X182532Y175443D01*
X182546Y175556D01*
X182563Y175668D01*
X182585Y175779D01*
X182610Y175889D01*
X182640Y175999D01*
X182673Y176107D01*
X182710Y176214D01*
X182750Y176320D01*
X182795Y176424D01*
X182843Y176527D01*
X182894Y176628D01*
X182949Y176727D01*
X183007Y176824D01*
X183069Y176919D01*
X183134Y177012D01*
X183202Y177102D01*
X183273Y177190D01*
X183348Y177276D01*
X183425Y177359D01*
X183505Y177439D01*
X183588Y177516D01*
X183674Y177591D01*
X183762Y177662D01*
X183852Y177730D01*
X183945Y177795D01*
X184040Y177857D01*
X184137Y177915D01*
X184236Y177970D01*
X184337Y178021D01*
X184440Y178069D01*
X184544Y178114D01*
X184650Y178154D01*
X184757Y178191D01*
X184865Y178224D01*
X184975Y178254D01*
X185085Y178279D01*
X185196Y178301D01*
X185308Y178318D01*
X185421Y178332D01*
X185534Y178342D01*
X185647Y178348D01*
X185760Y178350D01*
X185873Y178348D01*
X185986Y178342D01*
X186099Y178332D01*
X186212Y178318D01*
X186324Y178301D01*
X186435Y178279D01*
X186545Y178254D01*
X186655Y178224D01*
X186763Y178191D01*
X186870Y178154D01*
X186976Y178114D01*
X187080Y178069D01*
X187183Y178021D01*
X187284Y177970D01*
X187383Y177915D01*
X187480Y177857D01*
X187575Y177795D01*
X187668Y177730D01*
X187758Y177662D01*
X187846Y177591D01*
X187932Y177516D01*
X188015Y177439D01*
X188095Y177359D01*
X188172Y177276D01*
X188247Y177190D01*
X188318Y177102D01*
X188386Y177012D01*
X188451Y176919D01*
X188513Y176824D01*
X188571Y176727D01*
X188626Y176628D01*
X188677Y176527D01*
X188725Y176424D01*
X188770Y176320D01*
X188810Y176214D01*
X188847Y176107D01*
X188880Y175999D01*
X188910Y175889D01*
X188935Y175779D01*
X188957Y175668D01*
X188974Y175556D01*
X188988Y175443D01*
X188998Y175330D01*
X189004Y175217D01*
X189006Y175104D01*
X189004Y174991D01*
X188998Y174878D01*
X188988Y174765D01*
X188974Y174652D01*
X188957Y174540D01*
X188935Y174429D01*
X188910Y174319D01*
X188880Y174209D01*
X188847Y174101D01*
X188810Y173994D01*
X188770Y173888D01*
X188725Y173784D01*
X188677Y173681D01*
X188626Y173580D01*
X188571Y173481D01*
X188513Y173384D01*
X188451Y173289D01*
X188386Y173196D01*
X188318Y173106D01*
X188247Y173018D01*
X188172Y172932D01*
X188095Y172849D01*
X188015Y172769D01*
X187932Y172692D01*
X187846Y172617D01*
X187758Y172546D01*
X187668Y172478D01*
X187575Y172413D01*
X187480Y172351D01*
X187383Y172293D01*
X187284Y172238D01*
X187183Y172187D01*
X187080Y172139D01*
X186976Y172094D01*
X186870Y172054D01*
X186763Y172017D01*
X186655Y171984D01*
X186545Y171954D01*
X186435Y171929D01*
X186324Y171907D01*
X186212Y171890D01*
X186099Y171876D01*
X185986Y171866D01*
X185873Y171860D01*
X185760Y171858D01*
X185647Y171860D01*
X185534Y171866D01*
X185421Y171876D01*
X185308Y171890D01*
X185196Y171907D01*
X185085Y171929D01*
X184975Y171954D01*
X184865Y171984D01*
X184757Y172017D01*
X184650Y172054D01*
X184544Y172094D01*
X184440Y172139D01*
X184337Y172187D01*
X184236Y172238D01*
X184137Y172293D01*
X184040Y172351D01*
X183945Y172413D01*
X183852Y172478D01*
X183762Y172546D01*
X183674Y172617D01*
X183588Y172692D01*
X183505Y172769D01*
X183425Y172849D01*
X183348Y172932D01*
X183273Y173018D01*
X183202Y173106D01*
X183134Y173196D01*
X183069Y173289D01*
X183007Y173384D01*
X182949Y173481D01*
X182894Y173580D01*
X182843Y173681D01*
X182795Y173784D01*
X182750Y173888D01*
X182710Y173994D01*
X182673Y174101D01*
X182640Y174209D01*
X182610Y174319D01*
X182585Y174429D01*
X182563Y174540D01*
X182546Y174652D01*
X182532Y174765D01*
X182522Y174878D01*
X182516Y174991D01*
X182514Y175104D01*
X183164Y180946D02*
X183166Y181047D01*
X183172Y181147D01*
X183182Y181247D01*
X183195Y181347D01*
X183213Y181446D01*
X183234Y181545D01*
X183259Y181642D01*
X183288Y181739D01*
X183321Y181834D01*
X183357Y181928D01*
X183397Y182020D01*
X183440Y182111D01*
X183487Y182200D01*
X183537Y182287D01*
X183591Y182373D01*
X183648Y182456D01*
X183708Y182536D01*
X183771Y182615D01*
X183838Y182691D01*
X183907Y182764D01*
X183979Y182834D01*
X184053Y182902D01*
X184130Y182967D01*
X184210Y183028D01*
X184292Y183087D01*
X184376Y183142D01*
X184462Y183194D01*
X184550Y183243D01*
X184640Y183288D01*
X184732Y183330D01*
X184825Y183368D01*
X184920Y183402D01*
X185015Y183433D01*
X185112Y183460D01*
X185210Y183483D01*
X185309Y183503D01*
X185409Y183518D01*
X185509Y183530D01*
X185609Y183538D01*
X185710Y183542D01*
X185810Y183542D01*
X185911Y183538D01*
X186011Y183530D01*
X186111Y183518D01*
X186211Y183503D01*
X186310Y183483D01*
X186408Y183460D01*
X186505Y183433D01*
X186600Y183402D01*
X186695Y183368D01*
X186788Y183330D01*
X186880Y183288D01*
X186970Y183243D01*
X187058Y183194D01*
X187144Y183142D01*
X187228Y183087D01*
X187310Y183028D01*
X187390Y182967D01*
X187467Y182902D01*
X187541Y182834D01*
X187613Y182764D01*
X187682Y182691D01*
X187749Y182615D01*
X187812Y182536D01*
X187872Y182456D01*
X187929Y182373D01*
X187983Y182287D01*
X188033Y182200D01*
X188080Y182111D01*
X188123Y182020D01*
X188163Y181928D01*
X188199Y181834D01*
X188232Y181739D01*
X188261Y181642D01*
X188286Y181545D01*
X188307Y181446D01*
X188325Y181347D01*
X188338Y181247D01*
X188348Y181147D01*
X188354Y181047D01*
X188356Y180946D01*
X188354Y180845D01*
X188348Y180745D01*
X188338Y180645D01*
X188325Y180545D01*
X188307Y180446D01*
X188286Y180347D01*
X188261Y180250D01*
X188232Y180153D01*
X188199Y180058D01*
X188163Y179964D01*
X188123Y179872D01*
X188080Y179781D01*
X188033Y179692D01*
X187983Y179605D01*
X187929Y179519D01*
X187872Y179436D01*
X187812Y179356D01*
X187749Y179277D01*
X187682Y179201D01*
X187613Y179128D01*
X187541Y179058D01*
X187467Y178990D01*
X187390Y178925D01*
X187310Y178864D01*
X187228Y178805D01*
X187144Y178750D01*
X187058Y178698D01*
X186970Y178649D01*
X186880Y178604D01*
X186788Y178562D01*
X186695Y178524D01*
X186600Y178490D01*
X186505Y178459D01*
X186408Y178432D01*
X186310Y178409D01*
X186211Y178389D01*
X186111Y178374D01*
X186011Y178362D01*
X185911Y178354D01*
X185810Y178350D01*
X185710Y178350D01*
X185609Y178354D01*
X185509Y178362D01*
X185409Y178374D01*
X185309Y178389D01*
X185210Y178409D01*
X185112Y178432D01*
X185015Y178459D01*
X184920Y178490D01*
X184825Y178524D01*
X184732Y178562D01*
X184640Y178604D01*
X184550Y178649D01*
X184462Y178698D01*
X184376Y178750D01*
X184292Y178805D01*
X184210Y178864D01*
X184130Y178925D01*
X184053Y178990D01*
X183979Y179058D01*
X183907Y179128D01*
X183838Y179201D01*
X183771Y179277D01*
X183708Y179356D01*
X183648Y179436D01*
X183591Y179519D01*
X183537Y179605D01*
X183487Y179692D01*
X183440Y179781D01*
X183397Y179872D01*
X183357Y179964D01*
X183321Y180058D01*
X183288Y180153D01*
X183259Y180250D01*
X183234Y180347D01*
X183213Y180446D01*
X183195Y180545D01*
X183182Y180645D01*
X183172Y180745D01*
X183166Y180845D01*
X183164Y180946D01*
D12*
X139281Y285041D02*
X141892Y287129D01*
X141892Y277731D01*
X144502Y277731D02*
X139281Y277731D01*
D11*
X505478Y375246D02*
X508724Y377842D01*
X508724Y366158D01*
X511969Y366158D02*
X505478Y366158D01*
D13*
X252200Y275300D02*
X239500Y275300D01*
X239500Y288000D01*
X341100Y275300D02*
X366500Y275300D01*
X366500Y288000D01*
X366500Y338800D02*
X366500Y402300D01*
X239500Y402300D02*
X239500Y338800D01*
X239500Y427700D02*
X366500Y427700D01*
X421500Y282000D02*
X421500Y229400D01*
X460500Y229400D01*
X460500Y282000D01*
X421500Y282000D01*
D12*
X409992Y294779D02*
X407381Y292691D01*
X409992Y294779D02*
X409992Y285381D01*
X412602Y285381D02*
X407381Y285381D01*
D11*
X180158Y163542D02*
X180158Y151858D01*
X180158Y163542D02*
X183404Y163542D01*
X183517Y163540D01*
X183630Y163534D01*
X183743Y163524D01*
X183856Y163510D01*
X183968Y163493D01*
X184079Y163471D01*
X184189Y163446D01*
X184299Y163416D01*
X184407Y163383D01*
X184514Y163346D01*
X184620Y163306D01*
X184724Y163261D01*
X184827Y163213D01*
X184928Y163162D01*
X185027Y163107D01*
X185124Y163049D01*
X185219Y162987D01*
X185312Y162922D01*
X185402Y162854D01*
X185490Y162783D01*
X185576Y162708D01*
X185659Y162631D01*
X185739Y162551D01*
X185816Y162468D01*
X185891Y162382D01*
X185962Y162294D01*
X186030Y162204D01*
X186095Y162111D01*
X186157Y162016D01*
X186215Y161919D01*
X186270Y161820D01*
X186321Y161719D01*
X186369Y161616D01*
X186414Y161512D01*
X186454Y161406D01*
X186491Y161299D01*
X186524Y161191D01*
X186554Y161081D01*
X186579Y160971D01*
X186601Y160860D01*
X186618Y160748D01*
X186632Y160635D01*
X186642Y160522D01*
X186648Y160409D01*
X186650Y160296D01*
X186648Y160183D01*
X186642Y160070D01*
X186632Y159957D01*
X186618Y159844D01*
X186601Y159732D01*
X186579Y159621D01*
X186554Y159511D01*
X186524Y159401D01*
X186491Y159293D01*
X186454Y159186D01*
X186414Y159080D01*
X186369Y158976D01*
X186321Y158873D01*
X186270Y158772D01*
X186215Y158673D01*
X186157Y158576D01*
X186095Y158481D01*
X186030Y158388D01*
X185962Y158298D01*
X185891Y158210D01*
X185816Y158124D01*
X185739Y158041D01*
X185659Y157961D01*
X185576Y157884D01*
X185490Y157809D01*
X185402Y157738D01*
X185312Y157670D01*
X185219Y157605D01*
X185124Y157543D01*
X185027Y157485D01*
X184928Y157430D01*
X184827Y157379D01*
X184724Y157331D01*
X184620Y157286D01*
X184514Y157246D01*
X184407Y157209D01*
X184299Y157176D01*
X184189Y157146D01*
X184079Y157121D01*
X183968Y157099D01*
X183856Y157082D01*
X183743Y157068D01*
X183630Y157058D01*
X183517Y157052D01*
X183404Y157050D01*
X183404Y157051D02*
X180158Y157051D01*
X184053Y157051D02*
X186649Y151858D01*
X198005Y160621D02*
X198003Y160728D01*
X197997Y160834D01*
X197987Y160940D01*
X197974Y161046D01*
X197956Y161152D01*
X197935Y161256D01*
X197910Y161360D01*
X197881Y161463D01*
X197849Y161564D01*
X197812Y161664D01*
X197772Y161763D01*
X197729Y161861D01*
X197682Y161957D01*
X197631Y162051D01*
X197577Y162143D01*
X197520Y162233D01*
X197460Y162321D01*
X197396Y162406D01*
X197329Y162489D01*
X197259Y162570D01*
X197187Y162648D01*
X197111Y162724D01*
X197033Y162796D01*
X196952Y162866D01*
X196869Y162933D01*
X196784Y162997D01*
X196696Y163057D01*
X196606Y163114D01*
X196514Y163168D01*
X196420Y163219D01*
X196324Y163266D01*
X196226Y163309D01*
X196127Y163349D01*
X196027Y163386D01*
X195926Y163418D01*
X195823Y163447D01*
X195719Y163472D01*
X195615Y163493D01*
X195509Y163511D01*
X195403Y163524D01*
X195297Y163534D01*
X195191Y163540D01*
X195084Y163542D01*
X194963Y163540D01*
X194842Y163534D01*
X194722Y163524D01*
X194601Y163511D01*
X194482Y163493D01*
X194362Y163472D01*
X194244Y163447D01*
X194127Y163418D01*
X194010Y163385D01*
X193895Y163349D01*
X193781Y163308D01*
X193668Y163265D01*
X193556Y163217D01*
X193447Y163166D01*
X193339Y163111D01*
X193232Y163053D01*
X193128Y162992D01*
X193026Y162927D01*
X192926Y162859D01*
X192828Y162788D01*
X192732Y162714D01*
X192639Y162637D01*
X192549Y162556D01*
X192461Y162473D01*
X192376Y162387D01*
X192293Y162298D01*
X192214Y162207D01*
X192137Y162113D01*
X192064Y162017D01*
X191994Y161919D01*
X191927Y161818D01*
X191863Y161715D01*
X191803Y161610D01*
X191746Y161503D01*
X191692Y161395D01*
X191642Y161285D01*
X191596Y161173D01*
X191553Y161060D01*
X191514Y160945D01*
X197032Y158349D02*
X197111Y158426D01*
X197187Y158507D01*
X197260Y158590D01*
X197330Y158675D01*
X197397Y158763D01*
X197461Y158853D01*
X197521Y158945D01*
X197578Y159040D01*
X197632Y159136D01*
X197683Y159234D01*
X197730Y159334D01*
X197774Y159436D01*
X197814Y159539D01*
X197850Y159643D01*
X197882Y159749D01*
X197911Y159855D01*
X197936Y159963D01*
X197958Y160071D01*
X197975Y160181D01*
X197989Y160290D01*
X197998Y160400D01*
X198004Y160511D01*
X198006Y160621D01*
X197032Y158349D02*
X191514Y151858D01*
X198005Y151858D01*
X604995Y94142D02*
X604995Y82458D01*
X604995Y94142D02*
X608240Y94142D01*
X608353Y94140D01*
X608466Y94134D01*
X608579Y94124D01*
X608692Y94110D01*
X608804Y94093D01*
X608915Y94071D01*
X609025Y94046D01*
X609135Y94016D01*
X609243Y93983D01*
X609350Y93946D01*
X609456Y93906D01*
X609560Y93861D01*
X609663Y93813D01*
X609764Y93762D01*
X609863Y93707D01*
X609960Y93649D01*
X610055Y93587D01*
X610148Y93522D01*
X610238Y93454D01*
X610326Y93383D01*
X610412Y93308D01*
X610495Y93231D01*
X610575Y93151D01*
X610652Y93068D01*
X610727Y92982D01*
X610798Y92894D01*
X610866Y92804D01*
X610931Y92711D01*
X610993Y92616D01*
X611051Y92519D01*
X611106Y92420D01*
X611157Y92319D01*
X611205Y92216D01*
X611250Y92112D01*
X611290Y92006D01*
X611327Y91899D01*
X611360Y91791D01*
X611390Y91681D01*
X611415Y91571D01*
X611437Y91460D01*
X611454Y91348D01*
X611468Y91235D01*
X611478Y91122D01*
X611484Y91009D01*
X611486Y90896D01*
X611484Y90783D01*
X611478Y90670D01*
X611468Y90557D01*
X611454Y90444D01*
X611437Y90332D01*
X611415Y90221D01*
X611390Y90111D01*
X611360Y90001D01*
X611327Y89893D01*
X611290Y89786D01*
X611250Y89680D01*
X611205Y89576D01*
X611157Y89473D01*
X611106Y89372D01*
X611051Y89273D01*
X610993Y89176D01*
X610931Y89081D01*
X610866Y88988D01*
X610798Y88898D01*
X610727Y88810D01*
X610652Y88724D01*
X610575Y88641D01*
X610495Y88561D01*
X610412Y88484D01*
X610326Y88409D01*
X610238Y88338D01*
X610148Y88270D01*
X610055Y88205D01*
X609960Y88143D01*
X609863Y88085D01*
X609764Y88030D01*
X609663Y87979D01*
X609560Y87931D01*
X609456Y87886D01*
X609350Y87846D01*
X609243Y87809D01*
X609135Y87776D01*
X609025Y87746D01*
X608915Y87721D01*
X608804Y87699D01*
X608692Y87682D01*
X608579Y87668D01*
X608466Y87658D01*
X608353Y87652D01*
X608240Y87650D01*
X608240Y87651D02*
X604995Y87651D01*
X608889Y87651D02*
X611486Y82458D01*
X616351Y82458D02*
X619596Y82458D01*
X619709Y82460D01*
X619822Y82466D01*
X619935Y82476D01*
X620048Y82490D01*
X620160Y82507D01*
X620271Y82529D01*
X620381Y82554D01*
X620491Y82584D01*
X620599Y82617D01*
X620706Y82654D01*
X620812Y82694D01*
X620916Y82739D01*
X621019Y82787D01*
X621120Y82838D01*
X621219Y82893D01*
X621316Y82951D01*
X621411Y83013D01*
X621504Y83078D01*
X621594Y83146D01*
X621682Y83217D01*
X621768Y83292D01*
X621851Y83369D01*
X621931Y83449D01*
X622008Y83532D01*
X622083Y83618D01*
X622154Y83706D01*
X622222Y83796D01*
X622287Y83889D01*
X622349Y83984D01*
X622407Y84081D01*
X622462Y84180D01*
X622513Y84281D01*
X622561Y84384D01*
X622606Y84488D01*
X622646Y84594D01*
X622683Y84701D01*
X622716Y84809D01*
X622746Y84919D01*
X622771Y85029D01*
X622793Y85140D01*
X622810Y85252D01*
X622824Y85365D01*
X622834Y85478D01*
X622840Y85591D01*
X622842Y85704D01*
X622840Y85817D01*
X622834Y85930D01*
X622824Y86043D01*
X622810Y86156D01*
X622793Y86268D01*
X622771Y86379D01*
X622746Y86489D01*
X622716Y86599D01*
X622683Y86707D01*
X622646Y86814D01*
X622606Y86920D01*
X622561Y87024D01*
X622513Y87127D01*
X622462Y87228D01*
X622407Y87327D01*
X622349Y87424D01*
X622287Y87519D01*
X622222Y87612D01*
X622154Y87702D01*
X622083Y87790D01*
X622008Y87876D01*
X621931Y87959D01*
X621851Y88039D01*
X621768Y88116D01*
X621682Y88191D01*
X621594Y88262D01*
X621504Y88330D01*
X621411Y88395D01*
X621316Y88457D01*
X621219Y88515D01*
X621120Y88570D01*
X621019Y88621D01*
X620916Y88669D01*
X620812Y88714D01*
X620706Y88754D01*
X620599Y88791D01*
X620491Y88824D01*
X620381Y88854D01*
X620271Y88879D01*
X620160Y88901D01*
X620048Y88918D01*
X619935Y88932D01*
X619822Y88942D01*
X619709Y88948D01*
X619596Y88950D01*
X620246Y94142D02*
X616351Y94142D01*
X620246Y94142D02*
X620347Y94140D01*
X620447Y94134D01*
X620547Y94124D01*
X620647Y94111D01*
X620746Y94093D01*
X620845Y94072D01*
X620942Y94047D01*
X621039Y94018D01*
X621134Y93985D01*
X621228Y93949D01*
X621320Y93909D01*
X621411Y93866D01*
X621500Y93819D01*
X621587Y93769D01*
X621673Y93715D01*
X621756Y93658D01*
X621836Y93598D01*
X621915Y93535D01*
X621991Y93468D01*
X622064Y93399D01*
X622134Y93327D01*
X622202Y93253D01*
X622267Y93176D01*
X622328Y93096D01*
X622387Y93014D01*
X622442Y92930D01*
X622494Y92844D01*
X622543Y92756D01*
X622588Y92666D01*
X622630Y92574D01*
X622668Y92481D01*
X622702Y92386D01*
X622733Y92291D01*
X622760Y92194D01*
X622783Y92096D01*
X622803Y91997D01*
X622818Y91897D01*
X622830Y91797D01*
X622838Y91697D01*
X622842Y91596D01*
X622842Y91496D01*
X622838Y91395D01*
X622830Y91295D01*
X622818Y91195D01*
X622803Y91095D01*
X622783Y90996D01*
X622760Y90898D01*
X622733Y90801D01*
X622702Y90706D01*
X622668Y90611D01*
X622630Y90518D01*
X622588Y90426D01*
X622543Y90336D01*
X622494Y90248D01*
X622442Y90162D01*
X622387Y90078D01*
X622328Y89996D01*
X622267Y89916D01*
X622202Y89839D01*
X622134Y89765D01*
X622064Y89693D01*
X621991Y89624D01*
X621915Y89557D01*
X621836Y89494D01*
X621756Y89434D01*
X621673Y89377D01*
X621587Y89323D01*
X621500Y89273D01*
X621411Y89226D01*
X621320Y89183D01*
X621228Y89143D01*
X621134Y89107D01*
X621039Y89074D01*
X620942Y89045D01*
X620845Y89020D01*
X620746Y88999D01*
X620647Y88981D01*
X620547Y88968D01*
X620447Y88958D01*
X620347Y88952D01*
X620246Y88950D01*
X620246Y88949D02*
X617649Y88949D01*
X425995Y92458D02*
X425995Y104142D01*
X429240Y104142D01*
X429353Y104140D01*
X429466Y104134D01*
X429579Y104124D01*
X429692Y104110D01*
X429804Y104093D01*
X429915Y104071D01*
X430025Y104046D01*
X430135Y104016D01*
X430243Y103983D01*
X430350Y103946D01*
X430456Y103906D01*
X430560Y103861D01*
X430663Y103813D01*
X430764Y103762D01*
X430863Y103707D01*
X430960Y103649D01*
X431055Y103587D01*
X431148Y103522D01*
X431238Y103454D01*
X431326Y103383D01*
X431412Y103308D01*
X431495Y103231D01*
X431575Y103151D01*
X431652Y103068D01*
X431727Y102982D01*
X431798Y102894D01*
X431866Y102804D01*
X431931Y102711D01*
X431993Y102616D01*
X432051Y102519D01*
X432106Y102420D01*
X432157Y102319D01*
X432205Y102216D01*
X432250Y102112D01*
X432290Y102006D01*
X432327Y101899D01*
X432360Y101791D01*
X432390Y101681D01*
X432415Y101571D01*
X432437Y101460D01*
X432454Y101348D01*
X432468Y101235D01*
X432478Y101122D01*
X432484Y101009D01*
X432486Y100896D01*
X432484Y100783D01*
X432478Y100670D01*
X432468Y100557D01*
X432454Y100444D01*
X432437Y100332D01*
X432415Y100221D01*
X432390Y100111D01*
X432360Y100001D01*
X432327Y99893D01*
X432290Y99786D01*
X432250Y99680D01*
X432205Y99576D01*
X432157Y99473D01*
X432106Y99372D01*
X432051Y99273D01*
X431993Y99176D01*
X431931Y99081D01*
X431866Y98988D01*
X431798Y98898D01*
X431727Y98810D01*
X431652Y98724D01*
X431575Y98641D01*
X431495Y98561D01*
X431412Y98484D01*
X431326Y98409D01*
X431238Y98338D01*
X431148Y98270D01*
X431055Y98205D01*
X430960Y98143D01*
X430863Y98085D01*
X430764Y98030D01*
X430663Y97979D01*
X430560Y97931D01*
X430456Y97886D01*
X430350Y97846D01*
X430243Y97809D01*
X430135Y97776D01*
X430025Y97746D01*
X429915Y97721D01*
X429804Y97699D01*
X429692Y97682D01*
X429579Y97668D01*
X429466Y97658D01*
X429353Y97652D01*
X429240Y97650D01*
X429240Y97651D02*
X425995Y97651D01*
X429889Y97651D02*
X432486Y92458D01*
X437351Y95054D02*
X439947Y104142D01*
X437351Y95054D02*
X443842Y95054D01*
X441895Y97651D02*
X441895Y92458D01*
X466959Y332458D02*
X469556Y332458D01*
X466959Y332458D02*
X466860Y332460D01*
X466760Y332466D01*
X466661Y332475D01*
X466563Y332488D01*
X466465Y332505D01*
X466367Y332526D01*
X466271Y332551D01*
X466176Y332579D01*
X466082Y332611D01*
X465989Y332646D01*
X465897Y332685D01*
X465807Y332728D01*
X465719Y332773D01*
X465632Y332823D01*
X465548Y332875D01*
X465465Y332931D01*
X465385Y332989D01*
X465307Y333051D01*
X465232Y333116D01*
X465159Y333184D01*
X465089Y333254D01*
X465021Y333327D01*
X464956Y333402D01*
X464894Y333480D01*
X464836Y333560D01*
X464780Y333643D01*
X464728Y333727D01*
X464678Y333814D01*
X464633Y333902D01*
X464590Y333992D01*
X464551Y334084D01*
X464516Y334177D01*
X464484Y334271D01*
X464456Y334366D01*
X464431Y334462D01*
X464410Y334560D01*
X464393Y334658D01*
X464380Y334756D01*
X464371Y334855D01*
X464365Y334955D01*
X464363Y335054D01*
X464363Y341546D01*
X464365Y341645D01*
X464371Y341745D01*
X464380Y341844D01*
X464393Y341942D01*
X464410Y342040D01*
X464431Y342138D01*
X464456Y342234D01*
X464484Y342329D01*
X464516Y342423D01*
X464551Y342516D01*
X464590Y342608D01*
X464633Y342698D01*
X464678Y342786D01*
X464728Y342873D01*
X464780Y342957D01*
X464836Y343040D01*
X464894Y343120D01*
X464956Y343198D01*
X465021Y343273D01*
X465089Y343346D01*
X465159Y343416D01*
X465232Y343484D01*
X465307Y343549D01*
X465385Y343611D01*
X465465Y343669D01*
X465548Y343725D01*
X465632Y343777D01*
X465719Y343827D01*
X465807Y343872D01*
X465897Y343915D01*
X465989Y343954D01*
X466081Y343989D01*
X466176Y344021D01*
X466271Y344049D01*
X466367Y344074D01*
X466465Y344095D01*
X466563Y344112D01*
X466661Y344125D01*
X466760Y344134D01*
X466860Y344140D01*
X466959Y344142D01*
X469556Y344142D01*
X473921Y341546D02*
X477166Y344142D01*
X477166Y332458D01*
X473921Y332458D02*
X480412Y332458D01*
X485351Y332458D02*
X488596Y332458D01*
X488709Y332460D01*
X488822Y332466D01*
X488935Y332476D01*
X489048Y332490D01*
X489160Y332507D01*
X489271Y332529D01*
X489381Y332554D01*
X489491Y332584D01*
X489599Y332617D01*
X489706Y332654D01*
X489812Y332694D01*
X489916Y332739D01*
X490019Y332787D01*
X490120Y332838D01*
X490219Y332893D01*
X490316Y332951D01*
X490411Y333013D01*
X490504Y333078D01*
X490594Y333146D01*
X490682Y333217D01*
X490768Y333292D01*
X490851Y333369D01*
X490931Y333449D01*
X491008Y333532D01*
X491083Y333618D01*
X491154Y333706D01*
X491222Y333796D01*
X491287Y333889D01*
X491349Y333984D01*
X491407Y334081D01*
X491462Y334180D01*
X491513Y334281D01*
X491561Y334384D01*
X491606Y334488D01*
X491646Y334594D01*
X491683Y334701D01*
X491716Y334809D01*
X491746Y334919D01*
X491771Y335029D01*
X491793Y335140D01*
X491810Y335252D01*
X491824Y335365D01*
X491834Y335478D01*
X491840Y335591D01*
X491842Y335704D01*
X491840Y335817D01*
X491834Y335930D01*
X491824Y336043D01*
X491810Y336156D01*
X491793Y336268D01*
X491771Y336379D01*
X491746Y336489D01*
X491716Y336599D01*
X491683Y336707D01*
X491646Y336814D01*
X491606Y336920D01*
X491561Y337024D01*
X491513Y337127D01*
X491462Y337228D01*
X491407Y337327D01*
X491349Y337424D01*
X491287Y337519D01*
X491222Y337612D01*
X491154Y337702D01*
X491083Y337790D01*
X491008Y337876D01*
X490931Y337959D01*
X490851Y338039D01*
X490768Y338116D01*
X490682Y338191D01*
X490594Y338262D01*
X490504Y338330D01*
X490411Y338395D01*
X490316Y338457D01*
X490219Y338515D01*
X490120Y338570D01*
X490019Y338621D01*
X489916Y338669D01*
X489812Y338714D01*
X489706Y338754D01*
X489599Y338791D01*
X489491Y338824D01*
X489381Y338854D01*
X489271Y338879D01*
X489160Y338901D01*
X489048Y338918D01*
X488935Y338932D01*
X488822Y338942D01*
X488709Y338948D01*
X488596Y338950D01*
X489246Y344142D02*
X485351Y344142D01*
X489246Y344142D02*
X489347Y344140D01*
X489447Y344134D01*
X489547Y344124D01*
X489647Y344111D01*
X489746Y344093D01*
X489845Y344072D01*
X489942Y344047D01*
X490039Y344018D01*
X490134Y343985D01*
X490228Y343949D01*
X490320Y343909D01*
X490411Y343866D01*
X490500Y343819D01*
X490587Y343769D01*
X490673Y343715D01*
X490756Y343658D01*
X490836Y343598D01*
X490915Y343535D01*
X490991Y343468D01*
X491064Y343399D01*
X491134Y343327D01*
X491202Y343253D01*
X491267Y343176D01*
X491328Y343096D01*
X491387Y343014D01*
X491442Y342930D01*
X491494Y342844D01*
X491543Y342756D01*
X491588Y342666D01*
X491630Y342574D01*
X491668Y342481D01*
X491702Y342386D01*
X491733Y342291D01*
X491760Y342194D01*
X491783Y342096D01*
X491803Y341997D01*
X491818Y341897D01*
X491830Y341797D01*
X491838Y341697D01*
X491842Y341596D01*
X491842Y341496D01*
X491838Y341395D01*
X491830Y341295D01*
X491818Y341195D01*
X491803Y341095D01*
X491783Y340996D01*
X491760Y340898D01*
X491733Y340801D01*
X491702Y340706D01*
X491668Y340611D01*
X491630Y340518D01*
X491588Y340426D01*
X491543Y340336D01*
X491494Y340248D01*
X491442Y340162D01*
X491387Y340078D01*
X491328Y339996D01*
X491267Y339916D01*
X491202Y339839D01*
X491134Y339765D01*
X491064Y339693D01*
X490991Y339624D01*
X490915Y339557D01*
X490836Y339494D01*
X490756Y339434D01*
X490673Y339377D01*
X490587Y339323D01*
X490500Y339273D01*
X490411Y339226D01*
X490320Y339183D01*
X490228Y339143D01*
X490134Y339107D01*
X490039Y339074D01*
X489942Y339045D01*
X489845Y339020D01*
X489746Y338999D01*
X489647Y338981D01*
X489547Y338968D01*
X489447Y338958D01*
X489347Y338952D01*
X489246Y338950D01*
X489246Y338949D02*
X486649Y338949D01*
X688959Y193458D02*
X691556Y193458D01*
X688959Y193458D02*
X688860Y193460D01*
X688760Y193466D01*
X688661Y193475D01*
X688563Y193488D01*
X688465Y193505D01*
X688367Y193526D01*
X688271Y193551D01*
X688176Y193579D01*
X688082Y193611D01*
X687989Y193646D01*
X687897Y193685D01*
X687807Y193728D01*
X687719Y193773D01*
X687632Y193823D01*
X687548Y193875D01*
X687465Y193931D01*
X687385Y193989D01*
X687307Y194051D01*
X687232Y194116D01*
X687159Y194184D01*
X687089Y194254D01*
X687021Y194327D01*
X686956Y194402D01*
X686894Y194480D01*
X686836Y194560D01*
X686780Y194643D01*
X686728Y194727D01*
X686678Y194814D01*
X686633Y194902D01*
X686590Y194992D01*
X686551Y195084D01*
X686516Y195177D01*
X686484Y195271D01*
X686456Y195366D01*
X686431Y195462D01*
X686410Y195560D01*
X686393Y195658D01*
X686380Y195756D01*
X686371Y195855D01*
X686365Y195955D01*
X686363Y196054D01*
X686363Y202546D01*
X686365Y202645D01*
X686371Y202745D01*
X686380Y202844D01*
X686393Y202942D01*
X686410Y203040D01*
X686431Y203138D01*
X686456Y203234D01*
X686484Y203329D01*
X686516Y203423D01*
X686551Y203516D01*
X686590Y203608D01*
X686633Y203698D01*
X686678Y203786D01*
X686728Y203873D01*
X686780Y203957D01*
X686836Y204040D01*
X686894Y204120D01*
X686956Y204198D01*
X687021Y204273D01*
X687089Y204346D01*
X687159Y204416D01*
X687232Y204484D01*
X687307Y204549D01*
X687385Y204611D01*
X687465Y204669D01*
X687548Y204725D01*
X687632Y204777D01*
X687719Y204827D01*
X687807Y204872D01*
X687897Y204915D01*
X687989Y204954D01*
X688081Y204989D01*
X688176Y205021D01*
X688271Y205049D01*
X688367Y205074D01*
X688465Y205095D01*
X688563Y205112D01*
X688661Y205125D01*
X688760Y205134D01*
X688860Y205140D01*
X688959Y205142D01*
X691556Y205142D01*
X695921Y202546D02*
X699166Y205142D01*
X699166Y193458D01*
X695921Y193458D02*
X702412Y193458D01*
X707351Y196054D02*
X709947Y205142D01*
X707351Y196054D02*
X713842Y196054D01*
X711895Y198651D02*
X711895Y193458D01*
X684542Y313959D02*
X684542Y316556D01*
X684542Y313959D02*
X684540Y313860D01*
X684534Y313760D01*
X684525Y313661D01*
X684512Y313563D01*
X684495Y313465D01*
X684474Y313367D01*
X684449Y313271D01*
X684421Y313176D01*
X684389Y313082D01*
X684354Y312989D01*
X684315Y312897D01*
X684272Y312807D01*
X684227Y312719D01*
X684177Y312632D01*
X684125Y312548D01*
X684069Y312465D01*
X684011Y312385D01*
X683949Y312307D01*
X683884Y312232D01*
X683816Y312159D01*
X683746Y312089D01*
X683673Y312021D01*
X683598Y311956D01*
X683520Y311894D01*
X683440Y311836D01*
X683357Y311780D01*
X683273Y311728D01*
X683186Y311678D01*
X683098Y311633D01*
X683008Y311590D01*
X682916Y311551D01*
X682823Y311516D01*
X682729Y311484D01*
X682634Y311456D01*
X682538Y311431D01*
X682440Y311410D01*
X682342Y311393D01*
X682244Y311380D01*
X682145Y311371D01*
X682045Y311365D01*
X681946Y311363D01*
X675454Y311363D01*
X675454Y311362D02*
X675355Y311364D01*
X675255Y311370D01*
X675156Y311379D01*
X675058Y311392D01*
X674960Y311410D01*
X674862Y311430D01*
X674766Y311455D01*
X674670Y311483D01*
X674576Y311515D01*
X674483Y311550D01*
X674392Y311589D01*
X674302Y311632D01*
X674213Y311677D01*
X674127Y311727D01*
X674042Y311779D01*
X673960Y311835D01*
X673880Y311894D01*
X673802Y311955D01*
X673726Y312020D01*
X673653Y312088D01*
X673583Y312158D01*
X673515Y312231D01*
X673450Y312307D01*
X673389Y312385D01*
X673330Y312465D01*
X673274Y312547D01*
X673222Y312632D01*
X673173Y312718D01*
X673127Y312807D01*
X673084Y312897D01*
X673045Y312988D01*
X673010Y313081D01*
X672978Y313175D01*
X672950Y313271D01*
X672925Y313367D01*
X672905Y313465D01*
X672887Y313563D01*
X672874Y313661D01*
X672865Y313760D01*
X672859Y313859D01*
X672857Y313959D01*
X672858Y313959D02*
X672858Y316556D01*
X675454Y320921D02*
X672858Y324166D01*
X684542Y324166D01*
X684542Y320921D02*
X684542Y327412D01*
X684542Y332351D02*
X684542Y336246D01*
X684540Y336345D01*
X684534Y336445D01*
X684525Y336544D01*
X684512Y336642D01*
X684495Y336740D01*
X684474Y336838D01*
X684449Y336934D01*
X684421Y337029D01*
X684389Y337123D01*
X684354Y337216D01*
X684315Y337308D01*
X684272Y337398D01*
X684227Y337486D01*
X684177Y337573D01*
X684125Y337657D01*
X684069Y337740D01*
X684011Y337820D01*
X683949Y337898D01*
X683884Y337973D01*
X683816Y338046D01*
X683746Y338116D01*
X683673Y338184D01*
X683598Y338249D01*
X683520Y338311D01*
X683440Y338369D01*
X683357Y338425D01*
X683273Y338477D01*
X683186Y338527D01*
X683098Y338572D01*
X683008Y338615D01*
X682916Y338654D01*
X682823Y338689D01*
X682729Y338721D01*
X682634Y338749D01*
X682538Y338774D01*
X682440Y338795D01*
X682342Y338812D01*
X682244Y338825D01*
X682145Y338834D01*
X682045Y338840D01*
X681946Y338842D01*
X680647Y338842D01*
X680548Y338840D01*
X680448Y338834D01*
X680349Y338825D01*
X680251Y338812D01*
X680153Y338795D01*
X680055Y338774D01*
X679959Y338749D01*
X679864Y338721D01*
X679770Y338689D01*
X679677Y338654D01*
X679585Y338615D01*
X679495Y338572D01*
X679407Y338527D01*
X679320Y338477D01*
X679236Y338425D01*
X679153Y338369D01*
X679073Y338311D01*
X678995Y338249D01*
X678920Y338184D01*
X678847Y338116D01*
X678777Y338046D01*
X678709Y337973D01*
X678644Y337898D01*
X678582Y337820D01*
X678524Y337740D01*
X678468Y337657D01*
X678416Y337573D01*
X678366Y337486D01*
X678321Y337398D01*
X678278Y337308D01*
X678239Y337216D01*
X678204Y337123D01*
X678172Y337029D01*
X678144Y336934D01*
X678119Y336838D01*
X678098Y336740D01*
X678081Y336642D01*
X678068Y336544D01*
X678059Y336445D01*
X678053Y336345D01*
X678051Y336246D01*
X678051Y332351D01*
X672858Y332351D01*
X672858Y338842D01*
X672389Y293458D02*
X674986Y293458D01*
X672389Y293458D02*
X672290Y293460D01*
X672190Y293466D01*
X672091Y293475D01*
X671993Y293488D01*
X671895Y293505D01*
X671797Y293526D01*
X671701Y293551D01*
X671606Y293579D01*
X671512Y293611D01*
X671419Y293646D01*
X671327Y293685D01*
X671237Y293728D01*
X671149Y293773D01*
X671062Y293823D01*
X670978Y293875D01*
X670895Y293931D01*
X670815Y293989D01*
X670737Y294051D01*
X670662Y294116D01*
X670589Y294184D01*
X670519Y294254D01*
X670451Y294327D01*
X670386Y294402D01*
X670324Y294480D01*
X670266Y294560D01*
X670210Y294643D01*
X670158Y294727D01*
X670108Y294814D01*
X670063Y294902D01*
X670020Y294992D01*
X669981Y295084D01*
X669946Y295177D01*
X669914Y295271D01*
X669886Y295366D01*
X669861Y295462D01*
X669840Y295560D01*
X669823Y295658D01*
X669810Y295756D01*
X669801Y295855D01*
X669795Y295955D01*
X669793Y296054D01*
X669793Y302546D01*
X669795Y302645D01*
X669801Y302745D01*
X669810Y302844D01*
X669823Y302942D01*
X669840Y303040D01*
X669861Y303138D01*
X669886Y303234D01*
X669914Y303329D01*
X669946Y303423D01*
X669981Y303516D01*
X670020Y303608D01*
X670063Y303698D01*
X670108Y303786D01*
X670158Y303873D01*
X670210Y303957D01*
X670266Y304040D01*
X670324Y304120D01*
X670386Y304198D01*
X670451Y304273D01*
X670519Y304346D01*
X670589Y304416D01*
X670662Y304484D01*
X670737Y304549D01*
X670815Y304611D01*
X670895Y304669D01*
X670978Y304725D01*
X671062Y304777D01*
X671149Y304827D01*
X671237Y304872D01*
X671327Y304915D01*
X671419Y304954D01*
X671511Y304989D01*
X671606Y305021D01*
X671701Y305049D01*
X671797Y305074D01*
X671895Y305095D01*
X671993Y305112D01*
X672091Y305125D01*
X672190Y305134D01*
X672290Y305140D01*
X672389Y305142D01*
X674986Y305142D01*
X679350Y296704D02*
X679352Y296817D01*
X679358Y296930D01*
X679368Y297043D01*
X679382Y297156D01*
X679399Y297268D01*
X679421Y297379D01*
X679446Y297489D01*
X679476Y297599D01*
X679509Y297707D01*
X679546Y297814D01*
X679586Y297920D01*
X679631Y298024D01*
X679679Y298127D01*
X679730Y298228D01*
X679785Y298327D01*
X679843Y298424D01*
X679905Y298519D01*
X679970Y298612D01*
X680038Y298702D01*
X680109Y298790D01*
X680184Y298876D01*
X680261Y298959D01*
X680341Y299039D01*
X680424Y299116D01*
X680510Y299191D01*
X680598Y299262D01*
X680688Y299330D01*
X680781Y299395D01*
X680876Y299457D01*
X680973Y299515D01*
X681072Y299570D01*
X681173Y299621D01*
X681276Y299669D01*
X681380Y299714D01*
X681486Y299754D01*
X681593Y299791D01*
X681701Y299824D01*
X681811Y299854D01*
X681921Y299879D01*
X682032Y299901D01*
X682144Y299918D01*
X682257Y299932D01*
X682370Y299942D01*
X682483Y299948D01*
X682596Y299950D01*
X682709Y299948D01*
X682822Y299942D01*
X682935Y299932D01*
X683048Y299918D01*
X683160Y299901D01*
X683271Y299879D01*
X683381Y299854D01*
X683491Y299824D01*
X683599Y299791D01*
X683706Y299754D01*
X683812Y299714D01*
X683916Y299669D01*
X684019Y299621D01*
X684120Y299570D01*
X684219Y299515D01*
X684316Y299457D01*
X684411Y299395D01*
X684504Y299330D01*
X684594Y299262D01*
X684682Y299191D01*
X684768Y299116D01*
X684851Y299039D01*
X684931Y298959D01*
X685008Y298876D01*
X685083Y298790D01*
X685154Y298702D01*
X685222Y298612D01*
X685287Y298519D01*
X685349Y298424D01*
X685407Y298327D01*
X685462Y298228D01*
X685513Y298127D01*
X685561Y298024D01*
X685606Y297920D01*
X685646Y297814D01*
X685683Y297707D01*
X685716Y297599D01*
X685746Y297489D01*
X685771Y297379D01*
X685793Y297268D01*
X685810Y297156D01*
X685824Y297043D01*
X685834Y296930D01*
X685840Y296817D01*
X685842Y296704D01*
X685840Y296591D01*
X685834Y296478D01*
X685824Y296365D01*
X685810Y296252D01*
X685793Y296140D01*
X685771Y296029D01*
X685746Y295919D01*
X685716Y295809D01*
X685683Y295701D01*
X685646Y295594D01*
X685606Y295488D01*
X685561Y295384D01*
X685513Y295281D01*
X685462Y295180D01*
X685407Y295081D01*
X685349Y294984D01*
X685287Y294889D01*
X685222Y294796D01*
X685154Y294706D01*
X685083Y294618D01*
X685008Y294532D01*
X684931Y294449D01*
X684851Y294369D01*
X684768Y294292D01*
X684682Y294217D01*
X684594Y294146D01*
X684504Y294078D01*
X684411Y294013D01*
X684316Y293951D01*
X684219Y293893D01*
X684120Y293838D01*
X684019Y293787D01*
X683916Y293739D01*
X683812Y293694D01*
X683706Y293654D01*
X683599Y293617D01*
X683491Y293584D01*
X683381Y293554D01*
X683271Y293529D01*
X683160Y293507D01*
X683048Y293490D01*
X682935Y293476D01*
X682822Y293466D01*
X682709Y293460D01*
X682596Y293458D01*
X682483Y293460D01*
X682370Y293466D01*
X682257Y293476D01*
X682144Y293490D01*
X682032Y293507D01*
X681921Y293529D01*
X681811Y293554D01*
X681701Y293584D01*
X681593Y293617D01*
X681486Y293654D01*
X681380Y293694D01*
X681276Y293739D01*
X681173Y293787D01*
X681072Y293838D01*
X680973Y293893D01*
X680876Y293951D01*
X680781Y294013D01*
X680688Y294078D01*
X680598Y294146D01*
X680510Y294217D01*
X680424Y294292D01*
X680341Y294369D01*
X680261Y294449D01*
X680184Y294532D01*
X680109Y294618D01*
X680038Y294706D01*
X679970Y294796D01*
X679905Y294889D01*
X679843Y294984D01*
X679785Y295081D01*
X679730Y295180D01*
X679679Y295281D01*
X679631Y295384D01*
X679586Y295488D01*
X679546Y295594D01*
X679509Y295701D01*
X679476Y295809D01*
X679446Y295919D01*
X679421Y296029D01*
X679399Y296140D01*
X679382Y296252D01*
X679368Y296365D01*
X679358Y296478D01*
X679352Y296591D01*
X679350Y296704D01*
X680000Y302546D02*
X680002Y302647D01*
X680008Y302747D01*
X680018Y302847D01*
X680031Y302947D01*
X680049Y303046D01*
X680070Y303145D01*
X680095Y303242D01*
X680124Y303339D01*
X680157Y303434D01*
X680193Y303528D01*
X680233Y303620D01*
X680276Y303711D01*
X680323Y303800D01*
X680373Y303887D01*
X680427Y303973D01*
X680484Y304056D01*
X680544Y304136D01*
X680607Y304215D01*
X680674Y304291D01*
X680743Y304364D01*
X680815Y304434D01*
X680889Y304502D01*
X680966Y304567D01*
X681046Y304628D01*
X681128Y304687D01*
X681212Y304742D01*
X681298Y304794D01*
X681386Y304843D01*
X681476Y304888D01*
X681568Y304930D01*
X681661Y304968D01*
X681756Y305002D01*
X681851Y305033D01*
X681948Y305060D01*
X682046Y305083D01*
X682145Y305103D01*
X682245Y305118D01*
X682345Y305130D01*
X682445Y305138D01*
X682546Y305142D01*
X682646Y305142D01*
X682747Y305138D01*
X682847Y305130D01*
X682947Y305118D01*
X683047Y305103D01*
X683146Y305083D01*
X683244Y305060D01*
X683341Y305033D01*
X683436Y305002D01*
X683531Y304968D01*
X683624Y304930D01*
X683716Y304888D01*
X683806Y304843D01*
X683894Y304794D01*
X683980Y304742D01*
X684064Y304687D01*
X684146Y304628D01*
X684226Y304567D01*
X684303Y304502D01*
X684377Y304434D01*
X684449Y304364D01*
X684518Y304291D01*
X684585Y304215D01*
X684648Y304136D01*
X684708Y304056D01*
X684765Y303973D01*
X684819Y303887D01*
X684869Y303800D01*
X684916Y303711D01*
X684959Y303620D01*
X684999Y303528D01*
X685035Y303434D01*
X685068Y303339D01*
X685097Y303242D01*
X685122Y303145D01*
X685143Y303046D01*
X685161Y302947D01*
X685174Y302847D01*
X685184Y302747D01*
X685190Y302647D01*
X685192Y302546D01*
X685190Y302445D01*
X685184Y302345D01*
X685174Y302245D01*
X685161Y302145D01*
X685143Y302046D01*
X685122Y301947D01*
X685097Y301850D01*
X685068Y301753D01*
X685035Y301658D01*
X684999Y301564D01*
X684959Y301472D01*
X684916Y301381D01*
X684869Y301292D01*
X684819Y301205D01*
X684765Y301119D01*
X684708Y301036D01*
X684648Y300956D01*
X684585Y300877D01*
X684518Y300801D01*
X684449Y300728D01*
X684377Y300658D01*
X684303Y300590D01*
X684226Y300525D01*
X684146Y300464D01*
X684064Y300405D01*
X683980Y300350D01*
X683894Y300298D01*
X683806Y300249D01*
X683716Y300204D01*
X683624Y300162D01*
X683531Y300124D01*
X683436Y300090D01*
X683341Y300059D01*
X683244Y300032D01*
X683146Y300009D01*
X683047Y299989D01*
X682947Y299974D01*
X682847Y299962D01*
X682747Y299954D01*
X682646Y299950D01*
X682546Y299950D01*
X682445Y299954D01*
X682345Y299962D01*
X682245Y299974D01*
X682145Y299989D01*
X682046Y300009D01*
X681948Y300032D01*
X681851Y300059D01*
X681756Y300090D01*
X681661Y300124D01*
X681568Y300162D01*
X681476Y300204D01*
X681386Y300249D01*
X681298Y300298D01*
X681212Y300350D01*
X681128Y300405D01*
X681046Y300464D01*
X680966Y300525D01*
X680889Y300590D01*
X680815Y300658D01*
X680743Y300728D01*
X680674Y300801D01*
X680607Y300877D01*
X680544Y300956D01*
X680484Y301036D01*
X680427Y301119D01*
X680373Y301205D01*
X680323Y301292D01*
X680276Y301381D01*
X680233Y301472D01*
X680193Y301564D01*
X680157Y301658D01*
X680124Y301753D01*
X680095Y301850D01*
X680070Y301947D01*
X680049Y302046D01*
X680031Y302145D01*
X680018Y302245D01*
X680008Y302345D01*
X680002Y302445D01*
X680000Y302546D01*
X676066Y362523D02*
X676066Y374207D01*
X679312Y374207D01*
X679312Y374208D02*
X679425Y374206D01*
X679538Y374200D01*
X679651Y374190D01*
X679764Y374176D01*
X679876Y374159D01*
X679987Y374137D01*
X680097Y374112D01*
X680207Y374082D01*
X680315Y374049D01*
X680422Y374012D01*
X680528Y373972D01*
X680632Y373927D01*
X680735Y373879D01*
X680836Y373828D01*
X680935Y373773D01*
X681032Y373715D01*
X681127Y373653D01*
X681220Y373588D01*
X681310Y373520D01*
X681398Y373449D01*
X681484Y373374D01*
X681567Y373297D01*
X681647Y373217D01*
X681724Y373134D01*
X681799Y373048D01*
X681870Y372960D01*
X681938Y372870D01*
X682003Y372777D01*
X682065Y372682D01*
X682123Y372585D01*
X682178Y372486D01*
X682229Y372385D01*
X682277Y372282D01*
X682322Y372178D01*
X682362Y372072D01*
X682399Y371965D01*
X682432Y371857D01*
X682462Y371747D01*
X682487Y371637D01*
X682509Y371526D01*
X682526Y371414D01*
X682540Y371301D01*
X682550Y371188D01*
X682556Y371075D01*
X682558Y370962D01*
X682556Y370849D01*
X682550Y370736D01*
X682540Y370623D01*
X682526Y370510D01*
X682509Y370398D01*
X682487Y370287D01*
X682462Y370177D01*
X682432Y370067D01*
X682399Y369959D01*
X682362Y369852D01*
X682322Y369746D01*
X682277Y369642D01*
X682229Y369539D01*
X682178Y369438D01*
X682123Y369339D01*
X682065Y369242D01*
X682003Y369147D01*
X681938Y369054D01*
X681870Y368964D01*
X681799Y368876D01*
X681724Y368790D01*
X681647Y368707D01*
X681567Y368627D01*
X681484Y368550D01*
X681398Y368475D01*
X681310Y368404D01*
X681220Y368336D01*
X681127Y368271D01*
X681032Y368209D01*
X680935Y368151D01*
X680836Y368096D01*
X680735Y368045D01*
X680632Y367997D01*
X680528Y367952D01*
X680422Y367912D01*
X680315Y367875D01*
X680207Y367842D01*
X680097Y367812D01*
X679987Y367787D01*
X679876Y367765D01*
X679764Y367748D01*
X679651Y367734D01*
X679538Y367724D01*
X679425Y367718D01*
X679312Y367716D01*
X676066Y367716D01*
X679961Y367716D02*
X682557Y362523D01*
X687422Y369015D02*
X691317Y369015D01*
X691317Y369014D02*
X691416Y369012D01*
X691516Y369006D01*
X691615Y368997D01*
X691713Y368984D01*
X691811Y368967D01*
X691909Y368946D01*
X692005Y368921D01*
X692100Y368893D01*
X692194Y368861D01*
X692287Y368826D01*
X692379Y368787D01*
X692469Y368744D01*
X692557Y368699D01*
X692644Y368649D01*
X692728Y368597D01*
X692811Y368541D01*
X692891Y368483D01*
X692969Y368421D01*
X693044Y368356D01*
X693117Y368288D01*
X693187Y368218D01*
X693255Y368145D01*
X693320Y368070D01*
X693382Y367992D01*
X693440Y367912D01*
X693496Y367829D01*
X693548Y367745D01*
X693598Y367658D01*
X693643Y367570D01*
X693686Y367480D01*
X693725Y367388D01*
X693760Y367295D01*
X693792Y367201D01*
X693820Y367106D01*
X693845Y367010D01*
X693866Y366912D01*
X693883Y366814D01*
X693896Y366716D01*
X693905Y366617D01*
X693911Y366517D01*
X693913Y366418D01*
X693914Y366418D02*
X693914Y365769D01*
X693912Y365656D01*
X693906Y365543D01*
X693896Y365430D01*
X693882Y365317D01*
X693865Y365205D01*
X693843Y365094D01*
X693818Y364984D01*
X693788Y364874D01*
X693755Y364766D01*
X693718Y364659D01*
X693678Y364553D01*
X693633Y364449D01*
X693585Y364346D01*
X693534Y364245D01*
X693479Y364146D01*
X693421Y364049D01*
X693359Y363954D01*
X693294Y363861D01*
X693226Y363771D01*
X693155Y363683D01*
X693080Y363597D01*
X693003Y363514D01*
X692923Y363434D01*
X692840Y363357D01*
X692754Y363282D01*
X692666Y363211D01*
X692576Y363143D01*
X692483Y363078D01*
X692388Y363016D01*
X692291Y362958D01*
X692192Y362903D01*
X692091Y362852D01*
X691988Y362804D01*
X691884Y362759D01*
X691778Y362719D01*
X691671Y362682D01*
X691563Y362649D01*
X691453Y362619D01*
X691343Y362594D01*
X691232Y362572D01*
X691120Y362555D01*
X691007Y362541D01*
X690894Y362531D01*
X690781Y362525D01*
X690668Y362523D01*
X690555Y362525D01*
X690442Y362531D01*
X690329Y362541D01*
X690216Y362555D01*
X690104Y362572D01*
X689993Y362594D01*
X689883Y362619D01*
X689773Y362649D01*
X689665Y362682D01*
X689558Y362719D01*
X689452Y362759D01*
X689348Y362804D01*
X689245Y362852D01*
X689144Y362903D01*
X689045Y362958D01*
X688948Y363016D01*
X688853Y363078D01*
X688760Y363143D01*
X688670Y363211D01*
X688582Y363282D01*
X688496Y363357D01*
X688413Y363434D01*
X688333Y363514D01*
X688256Y363597D01*
X688181Y363683D01*
X688110Y363771D01*
X688042Y363861D01*
X687977Y363954D01*
X687915Y364049D01*
X687857Y364146D01*
X687802Y364245D01*
X687751Y364346D01*
X687703Y364449D01*
X687658Y364553D01*
X687618Y364659D01*
X687581Y364766D01*
X687548Y364874D01*
X687518Y364984D01*
X687493Y365094D01*
X687471Y365205D01*
X687454Y365317D01*
X687440Y365430D01*
X687430Y365543D01*
X687424Y365656D01*
X687422Y365769D01*
X687422Y369015D01*
X687424Y369158D01*
X687430Y369301D01*
X687440Y369444D01*
X687454Y369586D01*
X687471Y369728D01*
X687493Y369870D01*
X687518Y370011D01*
X687548Y370151D01*
X687581Y370290D01*
X687618Y370428D01*
X687659Y370565D01*
X687703Y370701D01*
X687752Y370836D01*
X687804Y370969D01*
X687859Y371101D01*
X687919Y371231D01*
X687982Y371360D01*
X688048Y371487D01*
X688118Y371611D01*
X688191Y371734D01*
X688268Y371855D01*
X688348Y371974D01*
X688431Y372090D01*
X688517Y372205D01*
X688606Y372316D01*
X688699Y372426D01*
X688794Y372532D01*
X688893Y372636D01*
X688994Y372737D01*
X689098Y372836D01*
X689204Y372931D01*
X689314Y373024D01*
X689425Y373113D01*
X689540Y373199D01*
X689656Y373282D01*
X689775Y373362D01*
X689896Y373439D01*
X690018Y373512D01*
X690143Y373582D01*
X690270Y373648D01*
X690399Y373711D01*
X690529Y373771D01*
X690661Y373826D01*
X690794Y373878D01*
X690929Y373927D01*
X691065Y373971D01*
X691202Y374012D01*
X691340Y374049D01*
X691479Y374082D01*
X691619Y374112D01*
X691760Y374137D01*
X691902Y374159D01*
X692044Y374176D01*
X692186Y374190D01*
X692329Y374200D01*
X692472Y374206D01*
X692615Y374208D01*
X398351Y69858D02*
X395754Y69858D01*
X395655Y69860D01*
X395555Y69866D01*
X395456Y69875D01*
X395358Y69888D01*
X395260Y69905D01*
X395162Y69926D01*
X395066Y69951D01*
X394971Y69979D01*
X394877Y70011D01*
X394784Y70046D01*
X394692Y70085D01*
X394602Y70128D01*
X394514Y70173D01*
X394427Y70223D01*
X394343Y70275D01*
X394260Y70331D01*
X394180Y70389D01*
X394102Y70451D01*
X394027Y70516D01*
X393954Y70584D01*
X393884Y70654D01*
X393816Y70727D01*
X393751Y70802D01*
X393689Y70880D01*
X393631Y70960D01*
X393575Y71043D01*
X393523Y71127D01*
X393473Y71214D01*
X393428Y71302D01*
X393385Y71392D01*
X393346Y71484D01*
X393311Y71577D01*
X393279Y71671D01*
X393251Y71766D01*
X393226Y71862D01*
X393205Y71960D01*
X393188Y72058D01*
X393175Y72156D01*
X393166Y72255D01*
X393160Y72355D01*
X393158Y72454D01*
X393158Y78946D01*
X393160Y79045D01*
X393166Y79145D01*
X393175Y79244D01*
X393188Y79342D01*
X393205Y79440D01*
X393226Y79538D01*
X393251Y79634D01*
X393279Y79729D01*
X393311Y79823D01*
X393346Y79916D01*
X393385Y80008D01*
X393428Y80098D01*
X393473Y80186D01*
X393523Y80273D01*
X393575Y80357D01*
X393631Y80440D01*
X393689Y80520D01*
X393751Y80598D01*
X393816Y80673D01*
X393884Y80746D01*
X393954Y80816D01*
X394027Y80884D01*
X394102Y80949D01*
X394180Y81011D01*
X394260Y81069D01*
X394343Y81125D01*
X394427Y81177D01*
X394514Y81227D01*
X394602Y81272D01*
X394692Y81315D01*
X394784Y81354D01*
X394876Y81389D01*
X394971Y81421D01*
X395066Y81449D01*
X395162Y81474D01*
X395260Y81495D01*
X395358Y81512D01*
X395456Y81525D01*
X395555Y81534D01*
X395655Y81540D01*
X395754Y81542D01*
X398351Y81542D01*
X405313Y75051D02*
X409207Y75051D01*
X405313Y75051D02*
X405214Y75053D01*
X405114Y75059D01*
X405015Y75068D01*
X404917Y75081D01*
X404819Y75098D01*
X404721Y75119D01*
X404625Y75144D01*
X404530Y75172D01*
X404436Y75204D01*
X404343Y75239D01*
X404251Y75278D01*
X404161Y75321D01*
X404073Y75366D01*
X403986Y75416D01*
X403902Y75468D01*
X403819Y75524D01*
X403739Y75582D01*
X403661Y75644D01*
X403586Y75709D01*
X403513Y75777D01*
X403443Y75847D01*
X403375Y75920D01*
X403310Y75995D01*
X403248Y76073D01*
X403190Y76153D01*
X403134Y76236D01*
X403082Y76320D01*
X403032Y76407D01*
X402987Y76495D01*
X402944Y76585D01*
X402905Y76677D01*
X402870Y76770D01*
X402838Y76864D01*
X402810Y76959D01*
X402785Y77055D01*
X402764Y77153D01*
X402747Y77251D01*
X402734Y77349D01*
X402725Y77448D01*
X402719Y77548D01*
X402717Y77647D01*
X402716Y77647D02*
X402716Y78296D01*
X402718Y78409D01*
X402724Y78522D01*
X402734Y78635D01*
X402748Y78748D01*
X402765Y78860D01*
X402787Y78971D01*
X402812Y79081D01*
X402842Y79191D01*
X402875Y79299D01*
X402912Y79406D01*
X402952Y79512D01*
X402997Y79616D01*
X403045Y79719D01*
X403096Y79820D01*
X403151Y79919D01*
X403209Y80016D01*
X403271Y80111D01*
X403336Y80204D01*
X403404Y80294D01*
X403475Y80382D01*
X403550Y80468D01*
X403627Y80551D01*
X403707Y80631D01*
X403790Y80708D01*
X403876Y80783D01*
X403964Y80854D01*
X404054Y80922D01*
X404147Y80987D01*
X404242Y81049D01*
X404339Y81107D01*
X404438Y81162D01*
X404539Y81213D01*
X404642Y81261D01*
X404746Y81306D01*
X404852Y81346D01*
X404959Y81383D01*
X405067Y81416D01*
X405177Y81446D01*
X405287Y81471D01*
X405398Y81493D01*
X405510Y81510D01*
X405623Y81524D01*
X405736Y81534D01*
X405849Y81540D01*
X405962Y81542D01*
X406075Y81540D01*
X406188Y81534D01*
X406301Y81524D01*
X406414Y81510D01*
X406526Y81493D01*
X406637Y81471D01*
X406747Y81446D01*
X406857Y81416D01*
X406965Y81383D01*
X407072Y81346D01*
X407178Y81306D01*
X407282Y81261D01*
X407385Y81213D01*
X407486Y81162D01*
X407585Y81107D01*
X407682Y81049D01*
X407777Y80987D01*
X407870Y80922D01*
X407960Y80854D01*
X408048Y80783D01*
X408134Y80708D01*
X408217Y80631D01*
X408297Y80551D01*
X408374Y80468D01*
X408449Y80382D01*
X408520Y80294D01*
X408588Y80204D01*
X408653Y80111D01*
X408715Y80016D01*
X408773Y79919D01*
X408828Y79820D01*
X408879Y79719D01*
X408927Y79616D01*
X408972Y79512D01*
X409012Y79406D01*
X409049Y79299D01*
X409082Y79191D01*
X409112Y79081D01*
X409137Y78971D01*
X409159Y78860D01*
X409176Y78748D01*
X409190Y78635D01*
X409200Y78522D01*
X409206Y78409D01*
X409208Y78296D01*
X409207Y78296D02*
X409207Y75051D01*
X409205Y74908D01*
X409199Y74765D01*
X409189Y74622D01*
X409175Y74480D01*
X409158Y74338D01*
X409136Y74196D01*
X409111Y74055D01*
X409081Y73915D01*
X409048Y73776D01*
X409011Y73638D01*
X408970Y73501D01*
X408926Y73365D01*
X408877Y73230D01*
X408825Y73097D01*
X408770Y72965D01*
X408710Y72835D01*
X408647Y72706D01*
X408581Y72579D01*
X408511Y72454D01*
X408438Y72332D01*
X408361Y72211D01*
X408281Y72092D01*
X408198Y71976D01*
X408112Y71861D01*
X408023Y71750D01*
X407930Y71640D01*
X407835Y71534D01*
X407736Y71430D01*
X407635Y71329D01*
X407531Y71230D01*
X407425Y71135D01*
X407315Y71042D01*
X407204Y70953D01*
X407089Y70867D01*
X406973Y70784D01*
X406854Y70704D01*
X406733Y70627D01*
X406611Y70554D01*
X406486Y70484D01*
X406359Y70418D01*
X406230Y70355D01*
X406100Y70295D01*
X405968Y70240D01*
X405835Y70188D01*
X405700Y70139D01*
X405564Y70095D01*
X405427Y70054D01*
X405289Y70017D01*
X405150Y69984D01*
X405010Y69954D01*
X404869Y69929D01*
X404727Y69907D01*
X404585Y69890D01*
X404443Y69876D01*
X404300Y69866D01*
X404157Y69860D01*
X404014Y69858D01*
X200351Y44858D02*
X197754Y44858D01*
X197655Y44860D01*
X197555Y44866D01*
X197456Y44875D01*
X197358Y44888D01*
X197260Y44905D01*
X197162Y44926D01*
X197066Y44951D01*
X196971Y44979D01*
X196877Y45011D01*
X196784Y45046D01*
X196692Y45085D01*
X196602Y45128D01*
X196514Y45173D01*
X196427Y45223D01*
X196343Y45275D01*
X196260Y45331D01*
X196180Y45389D01*
X196102Y45451D01*
X196027Y45516D01*
X195954Y45584D01*
X195884Y45654D01*
X195816Y45727D01*
X195751Y45802D01*
X195689Y45880D01*
X195631Y45960D01*
X195575Y46043D01*
X195523Y46127D01*
X195473Y46214D01*
X195428Y46302D01*
X195385Y46392D01*
X195346Y46484D01*
X195311Y46577D01*
X195279Y46671D01*
X195251Y46766D01*
X195226Y46862D01*
X195205Y46960D01*
X195188Y47058D01*
X195175Y47156D01*
X195166Y47255D01*
X195160Y47355D01*
X195158Y47454D01*
X195158Y53946D01*
X195160Y54045D01*
X195166Y54145D01*
X195175Y54244D01*
X195188Y54342D01*
X195205Y54440D01*
X195226Y54538D01*
X195251Y54634D01*
X195279Y54729D01*
X195311Y54823D01*
X195346Y54916D01*
X195385Y55008D01*
X195428Y55098D01*
X195473Y55186D01*
X195523Y55273D01*
X195575Y55357D01*
X195631Y55440D01*
X195689Y55520D01*
X195751Y55598D01*
X195816Y55673D01*
X195884Y55746D01*
X195954Y55816D01*
X196027Y55884D01*
X196102Y55949D01*
X196180Y56011D01*
X196260Y56069D01*
X196343Y56125D01*
X196427Y56177D01*
X196514Y56227D01*
X196602Y56272D01*
X196692Y56315D01*
X196784Y56354D01*
X196876Y56389D01*
X196971Y56421D01*
X197066Y56449D01*
X197162Y56474D01*
X197260Y56495D01*
X197358Y56512D01*
X197456Y56525D01*
X197555Y56534D01*
X197655Y56540D01*
X197754Y56542D01*
X200351Y56542D01*
X204716Y53946D02*
X207962Y56542D01*
X207962Y44858D01*
X211207Y44858D02*
X204716Y44858D01*
X216146Y51349D02*
X220041Y51349D01*
X220140Y51347D01*
X220240Y51341D01*
X220339Y51332D01*
X220437Y51319D01*
X220535Y51302D01*
X220633Y51281D01*
X220729Y51256D01*
X220824Y51228D01*
X220918Y51196D01*
X221011Y51161D01*
X221103Y51122D01*
X221193Y51079D01*
X221281Y51034D01*
X221368Y50984D01*
X221452Y50932D01*
X221535Y50876D01*
X221615Y50818D01*
X221693Y50756D01*
X221768Y50691D01*
X221841Y50623D01*
X221911Y50553D01*
X221979Y50480D01*
X222044Y50405D01*
X222106Y50327D01*
X222164Y50247D01*
X222220Y50164D01*
X222272Y50080D01*
X222322Y49993D01*
X222367Y49905D01*
X222410Y49815D01*
X222449Y49723D01*
X222484Y49630D01*
X222516Y49536D01*
X222544Y49441D01*
X222569Y49345D01*
X222590Y49247D01*
X222607Y49149D01*
X222620Y49051D01*
X222629Y48952D01*
X222635Y48852D01*
X222637Y48753D01*
X222637Y48104D01*
X222638Y48104D02*
X222636Y47991D01*
X222630Y47878D01*
X222620Y47765D01*
X222606Y47652D01*
X222589Y47540D01*
X222567Y47429D01*
X222542Y47319D01*
X222512Y47209D01*
X222479Y47101D01*
X222442Y46994D01*
X222402Y46888D01*
X222357Y46784D01*
X222309Y46681D01*
X222258Y46580D01*
X222203Y46481D01*
X222145Y46384D01*
X222083Y46289D01*
X222018Y46196D01*
X221950Y46106D01*
X221879Y46018D01*
X221804Y45932D01*
X221727Y45849D01*
X221647Y45769D01*
X221564Y45692D01*
X221478Y45617D01*
X221390Y45546D01*
X221300Y45478D01*
X221207Y45413D01*
X221112Y45351D01*
X221015Y45293D01*
X220916Y45238D01*
X220815Y45187D01*
X220712Y45139D01*
X220608Y45094D01*
X220502Y45054D01*
X220395Y45017D01*
X220287Y44984D01*
X220177Y44954D01*
X220067Y44929D01*
X219956Y44907D01*
X219844Y44890D01*
X219731Y44876D01*
X219618Y44866D01*
X219505Y44860D01*
X219392Y44858D01*
X219279Y44860D01*
X219166Y44866D01*
X219053Y44876D01*
X218940Y44890D01*
X218828Y44907D01*
X218717Y44929D01*
X218607Y44954D01*
X218497Y44984D01*
X218389Y45017D01*
X218282Y45054D01*
X218176Y45094D01*
X218072Y45139D01*
X217969Y45187D01*
X217868Y45238D01*
X217769Y45293D01*
X217672Y45351D01*
X217577Y45413D01*
X217484Y45478D01*
X217394Y45546D01*
X217306Y45617D01*
X217220Y45692D01*
X217137Y45769D01*
X217057Y45849D01*
X216980Y45932D01*
X216905Y46018D01*
X216834Y46106D01*
X216766Y46196D01*
X216701Y46289D01*
X216639Y46384D01*
X216581Y46481D01*
X216526Y46580D01*
X216475Y46681D01*
X216427Y46784D01*
X216382Y46888D01*
X216342Y46994D01*
X216305Y47101D01*
X216272Y47209D01*
X216242Y47319D01*
X216217Y47429D01*
X216195Y47540D01*
X216178Y47652D01*
X216164Y47765D01*
X216154Y47878D01*
X216148Y47991D01*
X216146Y48104D01*
X216146Y51349D01*
X216148Y51492D01*
X216154Y51635D01*
X216164Y51778D01*
X216178Y51920D01*
X216195Y52062D01*
X216217Y52204D01*
X216242Y52345D01*
X216272Y52485D01*
X216305Y52624D01*
X216342Y52762D01*
X216383Y52899D01*
X216427Y53035D01*
X216476Y53170D01*
X216528Y53303D01*
X216583Y53435D01*
X216643Y53565D01*
X216706Y53694D01*
X216772Y53821D01*
X216842Y53945D01*
X216915Y54068D01*
X216992Y54189D01*
X217072Y54308D01*
X217155Y54424D01*
X217241Y54539D01*
X217330Y54650D01*
X217423Y54760D01*
X217518Y54866D01*
X217617Y54970D01*
X217718Y55071D01*
X217822Y55170D01*
X217928Y55265D01*
X218038Y55358D01*
X218149Y55447D01*
X218264Y55533D01*
X218380Y55616D01*
X218499Y55696D01*
X218620Y55773D01*
X218742Y55846D01*
X218867Y55916D01*
X218994Y55982D01*
X219123Y56045D01*
X219253Y56105D01*
X219385Y56160D01*
X219518Y56212D01*
X219653Y56261D01*
X219789Y56305D01*
X219926Y56346D01*
X220064Y56383D01*
X220203Y56416D01*
X220343Y56446D01*
X220484Y56471D01*
X220626Y56493D01*
X220768Y56510D01*
X220910Y56524D01*
X221053Y56534D01*
X221196Y56540D01*
X221339Y56542D01*
D12*
X234181Y254191D02*
X236792Y256279D01*
X236792Y246881D01*
X239402Y246881D02*
X234181Y246881D01*
D14*
X265000Y250000D02*
X265000Y129000D01*
X341000Y129000D01*
X341000Y250000D01*
X265000Y250000D01*
X244000Y122500D02*
X364000Y122500D01*
X364000Y75500D02*
X244000Y75500D01*
X244000Y112500D02*
X244000Y122500D01*
X244000Y85500D02*
X244000Y75500D01*
X364000Y75500D02*
X364000Y85500D01*
X364000Y112500D02*
X364000Y122500D01*
M02*
